<?xml version="1.0" encoding="UTF-8"?>
<!-- Generator: visioncortex VTracer 0.6.5 -->
<svg version="1.1" xmlns="http://www.w3.org/2000/svg" width="300" height="223">
<path d="M0 0 C99 0 198 0 300 0 C300 73.59 300 147.18 300 223 C201 223 102 223 0 223 C0 149.41 0 75.82 0 0 Z " fill="#141414" transform="translate(0,0)"/>
<path d="M0 0 C0.66 0.66 1.32 1.32 2 2 C5.12 2.12 5.12 2.12 8 2 C8.12 4.37 8.12 4.37 8 7 C7.34 7.66 6.68 8.32 6 9 C4.59 11.9 3.99 14.14 3.69 17.38 C3.01 20.92 2.5 21.93 0.38 24.62 C-2 27.68 -2 27.68 -2 30.81 C-1 33 -1 33 2 35 C3.2 35.16 4.39 35.33 5.62 35.5 C6.18 35.58 6.18 35.58 9 36 C9.33 36.66 9.66 37.32 10 38 C9.5 38.62 9.01 39.24 8.5 39.88 C7 42 7 42 7 44 C7.62 44.24 8.23 44.48 8.87 44.73 C11.5 46.3 12 47.5 13.12 50.31 C13.28 50.69 13.28 50.69 14.07 52.61 C14.38 53.4 14.68 54.19 15 55 C15.36 55.75 15.71 56.51 16.08 57.28 C17.3 60.89 17.42 64.42 17.56 68.19 C17.88 75.76 17.88 75.76 19 78 C19.41 84.02 18.53 87.44 16 93 C14.94 96.44 14.94 96.44 15 100 C16.34 102.27 17.84 104.2 19.55 106.2 C21 108 21 108 22 111 C20.35 111 18.7 111 17 111 C16.67 109.35 16.34 107.7 16 106 C14.35 106 12.7 106 11 106 C12 109 12 109 14.06 110.19 C14.7 110.46 15.34 110.72 16 111 C15.38 111.14 14.76 111.29 14.12 111.44 C12 112 12 112 10 113 C16.08 113.11 21.96 112.69 28 112 C28.16 111.5 28.16 111.5 29 109 C30.13 109.47 31.27 109.95 32.44 110.44 C36.27 111.88 39.82 112.47 43.88 112.82 C46.62 113.05 49.3 113.52 52 114 C51.84 114.5 51.84 114.5 51 117 C50.13 116.69 49.27 116.38 48.38 116.06 C45.24 115.08 42.25 114.46 39 114 C39 114.66 39 115.32 39 116 C37.35 116.33 35.7 116.66 34 117 C34 116.34 34 115.68 34 115 C33.34 115 32.68 115 32 115 C31.84 115.5 31.84 115.5 31 118 C30.01 117.01 29.02 116.02 28 115 C27.84 115.5 27.84 115.5 27 118 C27 117.34 27 116.68 27 116 C26.34 116 25.68 116 25 116 C24.67 116.66 24.34 117.32 24 118 C23.34 117.34 22.68 116.68 22 116 C21.01 116 20.02 116 19 116 C18.94 116.38 18.94 116.38 18.62 118.31 C18 121 18 121 16 124 C20.95 124 25.9 124 31 124 C30.01 124.99 29.02 125.98 28 127 C27.34 128.03 26.68 129.06 26 130.12 C24 133 24 133 21 134 C21.33 133.01 21.33 133.01 23 128 C20.08 129.07 18.22 129.78 16 132 C16.21 132.34 16.21 132.34 17.25 134.06 C17.83 135.03 18.41 136 19 137 C19.36 137.59 19.72 138.18 20.09 138.79 C23 143.66 23 143.66 23 147 C22.34 147 21.68 147 21 147 C20.61 146.13 20.22 145.25 19.82 144.35 C17.89 140.79 15.73 138.29 12.94 135.38 C8.18 130.38 8.18 130.38 7.03 127.89 C5.51 125.09 3.33 124.06 0.62 122.44 C-4.85 119.13 -4.85 119.13 -7.02 117.33 C-9.49 115.67 -11.3 115.51 -14.25 115.31 C-15.14 115.25 -16.03 115.18 -16.95 115.11 C-17.63 115.08 -18.3 115.04 -19 115 C-19 113.35 -19 111.7 -19 110 C-19.59 109.74 -20.17 109.47 -20.78 109.2 C-23.1 107.95 -24.66 106.57 -26.56 104.75 C-29.71 101.91 -32.79 99.93 -36.56 98 C-40.94 95.74 -43.87 93.36 -47.16 89.75 C-50.62 86.46 -54.84 84.28 -59 82 C-58.69 79 -58.36 76 -58 73 C-57.87 71.87 -57.73 70.73 -57.59 69.57 C-57.44 68.37 -57.28 67.17 -57.12 65.94 C-56.98 64.81 -56.84 63.69 -56.7 62.53 C-56.03 59.14 -55.04 56.25 -53.78 53.06 C-52.48 49.63 -51.55 46.1 -50.56 42.56 C-44.39 21.11 -44.39 21.11 -35.27 14.91 C-29.72 12.69 -22.6 13.13 -17 15 C-10.71 15.46 -10.71 15.46 -7.69 13.5 C-7.13 13.01 -6.57 12.51 -6 12 C-5.34 12 -4.68 12 -4 12 C-4 12.66 -4 13.32 -4 14 C-2 12.62 -2 12.62 0 10 C0.36 6.64 0.23 3.36 0 0 Z " fill="#f6a8d2" transform="translate(115,25)"/>
<path d="M0 0 C0.99 0.66 1.98 1.32 3 2 C3 2.66 3 3.32 3 4 C3.66 4.33 4.32 4.66 5 5 C5.45 7 5.45 7 5.69 9.44 C5.77 10.24 5.86 11.04 5.95 11.87 C6 14 6 14 5 16 C2.03 15.67 -0.94 15.34 -4 15 C-3.34 14.34 -2.68 13.68 -2 13 C-3.65 13 -5.3 13 -7 13 C-7.33 14.32 -7.66 15.64 -8 17 C-9.32 16.67 -10.64 16.34 -12 16 C-11.67 15.67 -11.34 15.34 -11 15 C-11.99 15 -12.98 15 -14 15 C-13.67 15.99 -13.34 16.98 -13 18 C-12.39 18.04 -11.77 18.07 -11.14 18.11 C-10.33 18.18 -9.52 18.24 -8.69 18.31 C-7.89 18.37 -7.09 18.43 -6.26 18.49 C-3.64 19.08 -2.69 19.96 -1 22 C1.94 21.19 1.94 21.19 5 20 C5.16 19.5 5.16 19.5 6 17 C8.38 16.88 8.38 16.88 11 17 C13 19 13 19 13 22 C13.81 21.86 14.62 21.71 15.45 21.56 C16.52 21.38 17.59 21.19 18.69 21 C19.74 20.81 20.8 20.63 21.89 20.44 C24.65 20.05 27.22 19.92 30 20 C30 19.01 30 18.02 30 17 C31.94 17.38 31.94 17.38 34 18 C34.16 18.33 34.16 18.33 35 20 C36.11 20.27 37.23 20.54 38.38 20.81 C42.68 22.22 43.01 23.11 45 27 C46.65 28.69 48.31 30.35 50 32 C53 35.52 53 35.52 53 39 C51.35 39.33 49.7 39.66 48 40 C48 40.33 48 40.66 48 41 C50.31 41.33 52.62 41.66 55 42 C54.63 43.94 54.63 43.94 54 46 C53.67 46.16 53.67 46.16 52 47 C52.33 47.66 52.66 48.32 53 49 C50.36 49 47.72 49 45 49 C44 47 44 47 43.56 43.62 C43.08 40.54 42.58 38.63 41 36 C40.2 36.19 39.39 36.37 38.56 36.56 C37.72 36.71 36.87 36.85 36 37 C35 36 35 36 34.9 33.93 C34.91 33.11 34.93 32.29 34.94 31.44 C34.95 30.61 34.96 29.78 34.96 28.93 C34.98 28.3 34.99 27.66 35 27 C34.34 27 33.68 27 33 27 C33 28.65 33 30.3 33 32 C32.01 30.68 31.02 29.36 30 28 C29.39 28.08 29.39 28.08 26.31 28.5 C24.88 28.67 23.44 28.83 22 29 C21.09 29.12 20.19 29.25 19.25 29.38 C17 29 17 29 14.81 26.56 C14.21 25.72 13.62 24.87 13 24 C12.34 23.67 11.68 23.34 11 23 C11.31 23.52 11.62 24.03 11.94 24.56 C13.29 27.67 13.61 30.65 14 34 C14.99 34.33 15.98 34.66 17 35 C17.33 34.01 17.66 33.02 18 32 C18.33 32.16 18.33 32.16 20 33 C20 35.31 20 37.62 20 40 C18.52 40.16 18.52 40.16 11 41 C11 40.34 11 39.68 11 39 C10.45 39.16 9.9 39.32 9.34 39.49 C-2.32 42.03 -16.17 39.6 -28 39 C-28.27 27.44 -28.36 17.97 -22 8 C-21.67 8.66 -21.34 9.32 -21 10 C-18.25 8.47 -16.1 7.11 -13.94 4.81 C-12 3 -12 3 -8 3 C-8 2.34 -8 1.68 -8 1 C-5.23 -0.39 -3.07 -0.19 0 0 Z " fill="#f6a8d2" transform="translate(45,120)"/>
<path d="M0 0 C-0 0.77 -0 1.54 -0 2.34 C-0 4.08 0.02 5.82 0.06 7.56 C-1.3 10.69 -2.4 10.8 -5.5 12.06 C-6.31 12.34 -7.13 12.62 -7.97 12.91 C-10 14 -10 14 -10.81 15.98 C-11.02 18.23 -10.69 19.86 -10 22 C-12 22.04 -14 22.04 -16 22 C-16.33 21.67 -16.66 21.34 -17 21 C-17.25 21.62 -17.5 22.24 -17.75 22.88 C-19.21 25.35 -20.38 25.95 -23 27 C-22.05 27.31 -21.1 27.62 -20.12 27.94 C-17 29 -17 29 -15 30 C-16.05 34.28 -16.75 37.02 -20 40 C-20.72 41.64 -21.39 43.31 -22 45 C-22.33 45.66 -22.66 46.32 -23 47 C-22.66 49.31 -22.66 49.31 -22.06 52 C-21 56.84 -21 56.84 -21 59 C-20.42 59.23 -19.83 59.47 -19.23 59.71 C-14.56 62.41 -10.88 68.09 -9.33 73.21 C-9.06 75.12 -9.06 75.12 -9 78 C-8.1 78.23 -7.2 78.45 -6.27 78.68 C-0.62 80.96 2.22 85.73 5 91 C5.62 94.33 5.45 96.6 5 100 C4.34 100.16 4.34 100.16 1 101 C1 99.35 1 97.7 1 96 C0.41 95.74 -0.17 95.47 -0.78 95.2 C-3.1 93.95 -4.66 92.57 -6.56 90.75 C-9.71 87.91 -12.79 85.93 -16.56 84 C-20.94 81.74 -23.87 79.36 -27.16 75.75 C-30.62 72.46 -34.84 70.28 -39 68 C-38.69 65 -38.36 62 -38 59 C-37.87 57.87 -37.73 56.73 -37.59 55.57 C-37.44 54.37 -37.28 53.17 -37.12 51.94 C-36.98 50.81 -36.84 49.69 -36.7 48.53 C-36.03 45.14 -35.04 42.25 -33.78 39.06 C-32.48 35.63 -31.55 32.1 -30.56 28.56 C-24.41 7.17 -24.41 7.17 -15.28 0.9 C-10.45 -1.01 -5.1 -0.35 0 0 Z " fill="#5bc8ec" transform="translate(95,39)"/>
<path d="M0 0 C3.31 2.95 4.84 5.49 6.38 9.62 C11.02 21.25 15.85 28.85 27.36 34.2 C29 35 29 35 30 36 C30.18 38.12 30.27 40.25 30.31 42.38 C30.33 42.96 30.33 42.96 30.43 45.9 C30 49 30 49 27.98 50.91 C27.33 51.27 26.67 51.63 26 52 C26 50.35 26 48.7 26 47 C25.34 47 24.68 47 24 47 C24 46.01 24 45.02 24 44 C23.67 43.84 23.67 43.84 22 43 C22.33 41.35 22.66 39.7 23 38 C22.34 38 21.68 38 21 38 C21 38.66 21 39.32 21 40 C20.34 40 19.68 40 19 40 C18.73 40.8 18.46 41.61 18.19 42.44 C17.8 43.28 17.4 44.13 17 45 C16.5 45.16 16.5 45.16 14 46 C14.33 47.32 14.66 48.64 15 50 C15.99 50 16.98 50 18 50 C18.16 51.16 18.16 51.16 19 57 C19.99 56.84 19.99 56.84 25 56 C24.69 58.31 24.38 60.63 24.06 62.94 C23.89 64.23 23.71 65.51 23.54 66.84 C23 70 23 70 22 71 C17.92 71.27 13.84 71.27 9.75 71.3 C7.71 71.31 5.66 71.36 3.61 71.4 C2.32 71.41 1.03 71.42 -0.3 71.43 C-1.49 71.44 -2.68 71.45 -3.9 71.47 C-7.63 70.9 -8.69 69.91 -11 67 C-12.97 64.17 -14.08 62.21 -13.84 58.72 C-13.04 54.58 -12.39 51.72 -9 49 C-7.97 48.69 -6.94 48.38 -5.88 48.06 C-3 47 -3 47 -1.94 45.19 C-2.02 42.16 -3.42 40.57 -5 38 C-6.09 35.35 -6.86 32.87 -7 30 C-5.38 27.44 -5.38 27.44 -3 25 C2.11 17.9 1.65 11.26 0.5 2.81 C0.34 1.88 0.17 0.96 0 0 Z " fill="#fbfaf7" transform="translate(100,47)"/>
<path d="M0 0 C0.62 2.56 0.62 2.56 1 5 C0.01 5 -0.98 5 -2 5 C-2 4.34 -2 3.68 -2 3 C-2.99 3 -3.98 3 -5 3 C-4.8 3.54 -4.59 4.09 -4.38 4.64 C-4.11 5.36 -3.84 6.08 -3.56 6.81 C-3.3 7.52 -3.03 8.23 -2.75 8.96 C-2.14 10.63 -1.56 12.31 -1 14 C-0.28 13.77 0.44 13.55 1.19 13.31 C4.76 12.92 6.14 13.96 9 16 C8.62 18.44 8.62 18.44 8 21 C7.34 21.33 6.68 21.66 6 22 C5.66 23.33 5.33 24.66 5 26 C1.64 32.21 -2.46 36.68 -8 41 C-7.31 44.3 -6.11 47.1 -4.62 50.12 C-4.41 50.56 -4.41 50.56 -3.35 52.76 C-2 55 -2 55 1 57 C2.19 59.98 1.97 61.98 1 65 C1.66 65 2.32 65 3 65 C3.03 66.69 3.05 68.37 3.06 70.06 C3.07 71 3.09 71.94 3.1 72.91 C2.99 76.34 2.5 79.61 2 83 C1.84 84.55 1.68 86.11 1.54 87.66 C1.46 88.48 1.38 89.29 1.3 90.12 C1.14 91.8 0.99 93.47 0.84 95.15 C0.42 99.43 -0.09 103.08 -2 107 C-3.32 107 -4.64 107 -6 107 C-6.04 105.8 -6.07 104.59 -6.11 103.35 C-6.18 101.78 -6.25 100.2 -6.31 98.62 C-6.34 97.83 -6.36 97.04 -6.38 96.22 C-6.48 94.14 -6.73 92.07 -7 90 C-7.5 89.67 -7.5 89.67 -10 88 C-11.75 81.22 -11.09 73.58 -11 66.62 C-10.94 58.68 -11.05 50.89 -12 43 C-12.99 43 -13.98 43 -15 43 C-15.66 41.35 -16.32 39.7 -17 38 C-15.35 38 -13.7 38 -12 38 C-11.67 37.34 -11.34 36.68 -11 36 C-11.16 35.5 -11.16 35.5 -12 33 C-9.69 33.33 -7.38 33.66 -5 34 C-5.5 33.38 -5.99 32.76 -6.5 32.12 C-8 30 -8 30 -8 28 C-8.78 28.5 -9.57 28.99 -10.38 29.5 C-13 31 -13 31 -15 31 C-15.33 29.68 -15.66 28.36 -16 27 C-18.76 27.52 -21.33 28.11 -24 29 C-23.22 24.19 -22.34 19.41 -21.44 14.62 C-21.37 14.26 -21.37 14.26 -21.02 12.39 C-20.68 10.6 -20.34 8.8 -20 7 C-18.35 6.67 -16.7 6.34 -15 6 C-15.33 4.35 -15.66 2.7 -16 1 C-13.71 0.64 -11.42 0.29 -9.12 -0.06 C-7.85 -0.26 -6.57 -0.46 -5.26 -0.66 C-2 -1 -2 -1 0 0 Z " fill="#f6a8d2" transform="translate(145,17)"/>
<path d="M0 0 C2.38 0.19 2.38 0.19 5 1 C7.19 4.72 7.5 8.77 8 13 C8.99 13.33 9.98 13.66 11 14 C11.33 13.01 11.66 12.02 12 11 C12.66 11.33 13.32 11.66 14 12 C14 14.31 14 16.62 14 19 C11.03 19.33 8.06 19.66 5 20 C5 19.34 5 18.68 5 18 C4.45 18.16 3.9 18.32 3.34 18.49 C-8.32 21.03 -22.17 18.6 -34 18 C-34 15.36 -34 12.72 -34 10 C-25.27 6.84 -15.69 3.58 -6.31 4.06 C-3 4 -3 4 -1 2 C-0.67 1.34 -0.34 0.68 0 0 Z " fill="#5bc8ec" transform="translate(51,141)"/>
<path d="M0 0 C1.94 0.38 1.94 0.38 4 1 C4.33 1.66 4.66 2.32 5 3 C5.56 3.13 5.56 3.13 8.38 3.81 C12.68 5.22 13.01 6.11 15 10 C16.65 11.69 18.31 13.35 20 15 C23 18.52 23 18.52 23 22 C21.35 22.33 19.7 22.66 18 23 C18 23.33 18 23.66 18 24 C20.31 24.33 22.62 24.66 25 25 C24.62 26.94 24.62 26.94 24 29 C23.34 29.33 22.68 29.66 22 30 C22.33 30.66 22.66 31.32 23 32 C20.36 32 17.72 32 15 32 C14 30 14 30 13.56 26.62 C13.08 23.54 12.58 21.63 11 19 C10.2 19.19 9.39 19.37 8.56 19.56 C7.72 19.71 6.87 19.85 6 20 C5 19 5 19 4.9 16.93 C4.91 16.52 4.91 16.52 4.94 14.44 C4.95 13.61 4.96 12.78 4.96 11.93 C4.98 11.3 4.99 10.66 5 10 C4.01 9.67 3.02 9.34 2 9 C1.27 6.93 1.27 6.93 0.81 4.44 C0.65 3.61 0.5 2.78 0.33 1.93 C0.28 1.61 0.28 1.61 0 0 Z " fill="#5bc8ec" transform="translate(75,137)"/>
<path d="M0 0 C0.33 0.99 0.66 1.98 1 3 C-0.32 3 -1.64 3 -3 3 C-3.33 3.99 -3.66 4.98 -4 6 C-3.24 6.14 -2.47 6.29 -1.69 6.44 C1 7 1 7 4 8 C4.33 7.34 4.66 6.68 5 6 C6.65 6.66 8.3 7.32 10 8 C10 6.68 10 5.36 10 4 C10.66 4 11.32 4 12 4 C12.99 6.64 13.98 9.28 15 12 C12.69 12 10.38 12 8 12 C8 13.65 8 15.3 8 17 C7.01 16.67 6.02 16.34 5 16 C5 15.34 5 14.68 5 14 C4.01 13.84 4.01 13.84 -1 13 C-0.94 13.95 -0.88 14.9 -0.81 15.88 C-0.87 16.91 -0.94 17.94 -1 19 C-4 21 -4 21 -7 21 C-7 19.02 -7 17.04 -7 15 C-7.66 15 -8.32 15 -9 15 C-9 15.66 -9 16.32 -9 17 C-9.99 17 -10.98 17 -12 17 C-12 16.34 -12 15.68 -12 15 C-11.34 14.67 -10.68 14.34 -10 14 C-10 13.34 -10 12.68 -10 12 C-10.66 11.67 -11.32 11.34 -12 11 C-12.73 9.02 -13.4 7.02 -14 5 C-12.61 4.15 -11.21 3.32 -9.81 2.5 C-9.04 2.04 -8.26 1.57 -7.46 1.09 C-4.76 -0.11 -2.92 -0.21 0 0 Z " fill="#f6a8d2" transform="translate(200,134)"/>
<path d="M0 0 C0.62 2.56 0.62 2.56 1 5 C0.01 5 -0.98 5 -2 5 C-2 4.34 -2 3.68 -2 3 C-2.99 3 -3.98 3 -5 3 C-5.33 3.66 -5.66 4.32 -6 5 C-7.32 4.34 -8.64 3.68 -10 3 C-10.99 5.64 -11.98 8.28 -13 11 C-13.99 11 -14.98 11 -16 11 C-17.54 14.75 -18.07 17.69 -17.88 21.69 C-17.77 25.74 -17.77 25.74 -19.88 28.06 C-22 29 -22 29 -24 29 C-23.22 24.19 -22.34 19.41 -21.44 14.62 C-21.37 14.26 -21.37 14.26 -21.02 12.39 C-20.68 10.6 -20.34 8.8 -20 7 C-18.35 6.67 -16.7 6.34 -15 6 C-15.33 4.35 -15.66 2.7 -16 1 C-13.71 0.64 -11.42 0.29 -9.12 -0.06 C-7.85 -0.26 -6.57 -0.46 -5.26 -0.66 C-2 -1 -2 -1 0 0 Z " fill="#5bc8ec" transform="translate(145,17)"/>
<path d="M0 0 C0.66 0 1.32 0 2 0 C1.67 1.65 1.34 3.3 1 5 C1.99 5.33 2.98 5.66 4 6 C3.67 6.99 3.34 7.98 3 9 C3.66 9 4.32 9 5 9 C5.33 10.32 5.66 11.64 6 13 C6.66 12.67 7.32 12.34 8 12 C6.84 15.91 5.64 18.87 3 22 C3 21.01 3 20.02 3 19 C1.35 19 -0.3 19 -2 19 C-2.33 16.69 -2.66 14.38 -3 12 C-3.99 12 -4.98 12 -6 12 C-6.66 10.35 -7.32 8.7 -8 7 C-7.34 6.67 -6.68 6.34 -6 6 C-5.34 6.33 -4.68 6.66 -4 7 C-3.34 5.35 -2.68 3.7 -2 2 C-1.34 2 -0.68 2 0 2 C0 1.34 0 0.68 0 0 Z " fill="#f6a8d2" transform="translate(121,85)"/>
<path d="M0 0 C3.15 3.42 3.56 6.44 4 11 C4.99 11.33 5.98 11.66 7 12 C7.33 11.01 7.66 10.02 8 9 C8.66 9.33 9.32 9.66 10 10 C10 12.31 10 14.62 10 17 C7.03 17.33 4.06 17.66 1 18 C1 17.34 1 16.68 1 16 C0.74 16.08 0.74 16.08 -0.56 16.5 C-3.73 17.15 -6.77 17.06 -10 17 C-9.67 16.5 -9.67 16.5 -8 14 C-6.68 14 -5.36 14 -4 14 C-4 13.34 -4 12.68 -4 12 C-3.01 11.67 -2.02 11.34 -1 11 C-1.01 10.29 -1.02 9.58 -1.04 8.85 C-1.04 8.39 -1.04 8.39 -1.06 6.06 C-1.07 5.15 -1.09 4.23 -1.1 3.29 C-1 1 -1 1 0 0 Z " fill="#f6a8d2" transform="translate(55,143)"/>
<path d="M0 0 C0.55 0.2 1.09 0.41 1.65 0.62 C6.43 2.33 10.86 3.38 15.91 3.82 C18.64 4.06 21.31 4.52 24 5 C23.67 5.99 23.34 6.98 23 8 C22.13 7.69 21.27 7.38 20.38 7.06 C17.24 6.08 14.25 5.46 11 5 C11 5.66 11 6.32 11 7 C9.35 7.33 7.7 7.66 6 8 C6 7.34 6 6.68 6 6 C5.34 6 4.68 6 4 6 C3.67 6.99 3.34 7.98 3 9 C2.01 8.01 1.02 7.02 0 6 C-0.33 6.99 -0.66 7.98 -1 9 C-1 8.34 -1 7.68 -1 7 C-1.66 7 -2.32 7 -3 7 C-3.33 7.66 -3.66 8.32 -4 9 C-4.66 8.34 -5.32 7.68 -6 7 C-6.99 7 -7.98 7 -9 7 C-9.33 8.65 -9.66 10.3 -10 12 C-10.33 11.01 -10.66 10.02 -11 9 C-11.8 8.88 -12.61 8.75 -13.44 8.62 C-14.28 8.42 -15.13 8.21 -16 8 C-16.33 7.34 -16.66 6.68 -17 6 C-16.32 5.95 -15.65 5.9 -14.95 5.85 C-14.06 5.78 -13.17 5.7 -12.25 5.62 C-11.37 5.56 -10.49 5.49 -9.58 5.41 C-6.99 5 -5.3 4.19 -3 3 C-2.01 3 -1.02 3 0 3 C0 2.01 0 1.02 0 0 Z " fill="#5bc8ec" transform="translate(143,134)"/>
<path d="M0 0 C2 3 2 3 2 6 C0.35 6.33 -1.3 6.66 -3 7 C-3 7.33 -3 7.66 -3 8 C-0.69 8.33 1.62 8.66 4 9 C3.62 10.94 3.62 10.94 3 13 C2.67 13.16 2.67 13.16 1 14 C1.33 14.66 1.66 15.32 2 16 C-0.64 16 -3.28 16 -6 16 C-7 14 -7 14 -7.44 10.62 C-7.92 7.54 -8.42 5.63 -10 3 C-3.38 0 -3.38 0 0 0 Z " fill="#f6a8d2" transform="translate(96,153)"/>
<path d="M0 0 C1.28 3.84 0.56 6.01 -0.31 9.94 C-0.44 10.55 -0.44 10.55 -1.11 13.65 C-1.84 16.4 -2.49 18.6 -4 21 C-4.66 21.33 -5.32 21.66 -6 22 C-6 23.65 -6 25.3 -6 27 C-7.32 26.67 -8.64 26.34 -10 26 C-10.76 23.75 -11.14 22.45 -10.41 20.16 C-10.25 19.85 -10.25 19.85 -9.42 18.29 C-9.06 17.6 -8.71 16.91 -8.34 16.21 C-7.96 15.5 -7.58 14.79 -7.19 14.06 C-6.45 12.66 -5.71 11.25 -4.98 9.85 C-4.63 9.19 -4.29 8.53 -3.93 7.84 C-2.81 5.62 -1.9 3.32 -1 1 C-0.67 0.67 -0.34 0.34 0 0 Z " fill="#141414" transform="translate(90,75)"/>
<path d="M0 0 C0.33 0 0.66 0 1 0 C1.33 5.94 1.66 11.88 2 18 C0.35 18.99 -1.3 19.98 -3 21 C-3.93 24.36 -3.93 24.36 -4.31 28.19 C-4.45 29.46 -4.59 30.73 -4.74 32.04 C-4.82 33.02 -4.91 33.99 -5 35 C-5.99 35 -6.98 35 -8 35 C-8.48 27.6 -7.02 22.7 -4 16 C-1.73 10.61 -0.52 5.84 0 0 Z " fill="#5bc8ec" transform="translate(131,85)"/>
<path d="M0 0 C0.66 0.66 1.32 1.32 2 2 C5.12 2.12 5.12 2.12 8 2 C8.12 4.37 8.12 4.37 8 7 C7.34 7.66 6.68 8.32 6 9 C4.54 12 3.94 14.41 3.5 17.75 C3.33 18.82 3.17 19.89 3 21 C2.34 21.33 1.68 21.66 1 22 C1 19.03 1 16.06 1 13 C0.34 12.67 -0.32 12.34 -1 12 C-0.67 11.34 -0.34 10.68 0 10 C0.07 8.29 0.08 6.58 0.06 4.88 C0.05 3.96 0.04 3.05 0.04 2.12 C0.02 1.42 0.01 0.72 0 0 Z " fill="#5bc8ec" transform="translate(115,25)"/>
<path d="M0 0 C0.25 1.77 0.47 3.54 0.69 5.31 C0.82 6.3 0.94 7.28 1.07 8.3 C1 11 1 11 -0.11 12.79 C-2.66 14.42 -5.02 14.67 -8 15 C-7.55 12.69 -7.09 10.37 -6.62 8.06 C-6.37 6.77 -6.11 5.49 -5.85 4.16 C-5.57 3.12 -5.29 2.07 -5 1 C-3 0 -3 0 0 0 Z " fill="#5bc8ec" transform="translate(95,79)"/>
<path d="M0 0 C1.96 0.28 3.92 0.58 5.88 0.88 C6.42 0.96 6.42 0.96 9.18 1.37 C12 2 12 2 14 4 C14.38 6.94 14.38 6.94 14 10 C12.12 11.88 12.12 11.88 10 13 C9.34 13 8.68 13 8 13 C8.59 9.98 9.23 6.98 10 4 C9.01 3.67 8.02 3.34 7 3 C6.67 4.65 6.34 6.3 6 8 C4.68 7.67 3.36 7.34 2 7 C1.34 4.69 0.68 2.38 0 0 Z " fill="#141414" transform="translate(131,31)"/>
<path d="M0 0 C0.66 0 1.32 0 2 0 C2.74 13.63 2.74 13.63 -2 20 C-2.33 20 -2.66 20 -3 20 C-3.25 17.9 -3.47 15.79 -3.69 13.69 C-3.82 12.52 -3.94 11.34 -4.07 10.14 C-4 7 -4 7 -2.56 5.22 C-2.05 4.82 -1.53 4.41 -1 4 C-0.31 1.81 -0.31 1.81 0 0 Z " fill="#fbfaf7" transform="translate(139,78)"/>
<path d="M0 0 C5.78 0.57 9.3 1.86 13.81 5.44 C15 7 15 7 15 11 C14.34 11 13.68 11 13 11 C13 10.34 13 9.68 13 9 C11.68 8.67 10.36 8.34 9 8 C9 7.34 9 6.68 9 6 C6.69 6 4.38 6 2 6 C1.34 4.02 0.68 2.04 0 0 Z " fill="#f6a8d2" transform="translate(54,128)"/>
</svg>
