<?xml version="1.0" encoding="UTF-8"?>
<!-- Generator: visioncortex VTracer 0.6.5 -->
<svg version="1.1" xmlns="http://www.w3.org/2000/svg" width="244" height="300">
<path d="M0 0 C80.52 0 161.04 0 244 0 C244 99 244 198 244 300 C163.48 300 82.96 300 0 300 C0 201 0 102 0 0 Z " fill="#141414" transform="translate(0,0)"/>
<path d="M0 0 C16.5 0 33 0 50 0 C51.06 14.82 51.06 14.82 50 22 C49.98 23.75 49.98 25.5 50 27.25 C50.06 33.19 49.8 39.11 49 45 C48.67 45.33 48.34 45.66 48 46 C47.96 48 47.96 50 48 52 C48 54.54 47.98 57.08 47.94 59.62 C48 63 48 63 49 65 C48.91 66.71 48.76 68.42 48.56 70.12 C48.46 71.04 48.36 71.95 48.25 72.88 C48.17 73.58 48.09 74.28 48 75 C47.22 75.29 46.43 75.58 45.62 75.88 C43 77 43 77 41 79 C39.01 79.4 37.01 79.74 35 80 C36.92 85.16 38.8 88.26 43 92 C42.99 91.24 42.98 90.48 42.96 89.7 C42.96 88.71 42.95 87.71 42.94 86.69 C42.93 85.7 42.91 84.72 42.9 83.7 C43 81 43 81 44 78 C44.66 78 45.32 78 46 78 C46.66 79.98 47.32 81.96 48 84 C47.34 84 46.68 84 46 84 C46.16 84.59 46.16 84.59 47 87.56 C48.11 92 49.12 96.76 47 101 C47.42 101.48 47.42 101.48 49.56 103.94 C53.2 108.17 56.61 112.56 60 117 C60.27 117.35 60.27 117.35 61.64 119.1 C63 121 63 121 64 123.69 C64.16 124.07 64.16 124.07 65 126 C65.5 126.16 65.5 126.16 68 127 C67.77 126.33 67.55 125.65 67.31 124.96 C66.27 121.85 65.23 118.74 64.19 115.62 C63.83 114.56 63.47 113.5 63.11 112.41 C61.17 106.62 59.32 100.83 57.7 94.94 C57 93 57 93 55 91 C55.66 91 56.32 91 57 91 C57 88.36 57 85.72 57 83 C58.07 82.71 59.15 82.42 60.25 82.12 C63.09 81.27 65.44 80.44 68 79 C71.65 82.33 73.07 86.2 74.94 90.69 C75.29 91.53 75.65 92.37 76.01 93.23 C78.79 100 80.56 106.69 81.92 113.88 C83.23 117.65 84.52 118.27 88 120 C88 120.66 88 121.32 88 122 C89.05 121.5 90.1 121.01 91.19 120.5 C94.25 119.17 96.62 118.69 100 119 C97.46 121.97 94.51 123.36 91 125 C91.16 125.99 91.16 125.99 92 131 C90.68 130.67 89.36 130.34 88 130 C88.13 131.06 88.27 132.12 88.4 133.21 C90.09 147.44 90.6 161.68 91 176 C89.68 176.33 88.36 176.66 87 177 C87 177.66 87 178.32 87 179 C87.66 179.33 87.66 179.33 91 181 C91 181.99 91 182.98 91 184 C90.12 184.31 89.24 184.63 88.33 184.95 C87.17 185.38 86.01 185.81 84.81 186.25 C84.24 186.46 84.24 186.46 81.33 187.52 C78.05 188.98 75.69 190.63 73 193 C71 192 71 192 70.14 189.85 C69.85 188.93 69.55 188.01 69.25 187.06 C67.88 183.05 66.35 179.85 63.94 176.38 C58.73 167.99 58.26 157.71 57.52 148.07 C57.44 147.05 57.36 146.04 57.28 144.99 C57.14 143 57.01 141.01 56.91 139.02 C56.29 129.64 52.68 123.33 47 116 C46.67 115.84 46.67 115.84 45 115 C45.66 116.98 46.32 118.96 47 121 C46.34 121 45.68 121 45 121 C45.99 122.98 46.98 124.96 48 127 C47.67 127.16 47.67 127.16 46 128 C45.67 128.99 45.34 129.98 45 131 C45.66 131 46.32 131 47 131 C47 131.66 47 132.32 47 133 C46.34 133 45.68 133 45 133 C45.37 133.76 45.74 134.53 46.12 135.31 C46.27 135.76 46.27 135.76 47 138 C46.34 138.99 45.68 139.98 45 141 C45.66 141.99 46.32 142.98 47 144 C46.01 144 45.02 144 44 144 C44 145.32 44 146.64 44 148 C44.66 148 45.32 148 46 148 C46 148.66 46 149.32 46 150 C44.35 149.67 42.7 149.34 41 149 C40.97 142.52 40.96 136.04 40.95 129.57 C40.94 127.36 40.93 125.16 40.92 122.96 C40.91 119.79 40.91 116.62 40.9 113.45 C40.9 112.47 40.89 111.48 40.89 110.47 C40.89 109.55 40.89 108.63 40.89 107.68 C40.88 106.87 40.88 106.06 40.88 105.23 C41 103.03 41.39 101.11 42 99 C41.34 99.16 41.34 99.16 38 100 C38 99.34 38 98.68 38 98 C37.72 98.07 37.72 98.07 36.31 98.44 C35.93 98.53 35.93 98.53 34 99 C33.59 99.12 33.59 99.12 31.5 99.75 C29 100 29 100 27.12 98.56 C24.03 96.29 21.79 96.78 18 97 C15.58 97.56 13.18 98.21 10.81 98.94 C10.22 99.12 10.22 99.12 7.21 100.03 C6.15 100.35 5.09 100.67 4 101 C3.34 101.16 3.34 101.16 0 102 C0 68.34 0 34.68 0 0 Z " fill="#f6a8d2" transform="translate(0,0)"/>
<path d="M0 0 C0.66 0 1.32 0 2 0 C2.33 1.32 2.66 2.64 3 4 C4.32 4 5.64 4 7 4 C7 6.31 7 8.62 7 11 C6.01 11.33 5.02 11.66 4 12 C3.31 14.06 3.31 14.06 3 16 C3.99 16 4.98 16 6 16 C6 15.34 6 14.68 6 14 C14.26 11.72 23.85 10.22 32.11 13.08 C35.4 14.13 36.69 13.75 40 13 C42.88 12.96 45.75 13.13 48.62 13.31 C49.39 13.35 50.15 13.38 50.94 13.42 C54.73 13.64 56.78 13.85 60 16 C62.14 21.51 62.25 26.58 62.12 32.44 C62.12 33.26 62.11 34.09 62.1 34.94 C62.07 36.96 62.04 38.98 62 41 C62.92 40.82 63.85 40.65 64.8 40.47 C68.66 39.9 70.55 40.16 74 42 C75.41 44.3 76.14 46.41 77 49 C76.93 48.37 76.93 48.37 76.56 45.19 C76.48 44.48 76.4 43.77 76.32 43.04 C76 41 76 41 75 38 C79.92 39.16 82.02 42.11 84.96 45.93 C86 48 86 48 85.66 50.26 C85.44 50.83 85.23 51.41 85 52 C87 51 87 51 89 48 C89.67 51.03 90.14 53.9 90 57 C87.62 59.69 87.62 59.69 85 62 C84.19 65.31 84.19 65.31 84 68 C84.99 67.67 85.98 67.34 87 67 C88.19 64.44 88.19 64.44 89 62 C89.66 62.16 89.66 62.16 93 63 C93.17 60.13 93.34 57.25 93.5 54.38 C93.55 53.57 93.6 52.76 93.64 51.93 C93.89 47.61 94.06 43.32 94 39 C95.94 39.38 95.94 39.38 98 40 C99.84 43.69 98.51 48.02 98 52 C97.9 52.91 97.8 53.82 97.7 54.75 C96.81 61.1 94.88 65.53 91.24 70.81 C90 73 90 73 90 77 C91.26 80.07 92.67 83.04 94.1 86.03 C95 89 95 89 94.31 91.83 C93 94 93 94 90.38 94.81 C89.98 94.84 89.98 94.84 88 95 C86.88 91.25 86.88 91.25 88 89 C88.07 87.13 88.08 85.25 88.06 83.38 C88.05 82.37 88.04 81.37 88.04 80.34 C88.02 79.57 88.01 78.79 88 78 C86.02 77.01 84.04 76.02 82 75 C81.9 75.82 81.8 76.64 81.7 77.49 C80.54 86.16 79.37 94.63 73 101 C73 90.44 73 79.88 73 69 C66.25 79.12 66.25 79.12 65.62 84.06 C65.49 85 65.36 85.94 65.23 86.91 C65.15 87.6 65.08 88.29 65 89 C58.32 86.01 53.66 80.19 50 74 C48.21 68.64 48.04 63 50.5 57.88 C51 57.26 51.49 56.64 52 56 C54.97 56.33 57.94 56.66 61 57 C60.67 57.99 60.34 58.98 60 60 C60.26 59.84 60.26 59.84 61.56 59 C64.81 57.67 67.52 57.81 71 58 C71.66 58.33 72.32 58.66 73 59 C72.45 58.31 71.89 57.63 71.32 56.92 C70.96 56.47 70.96 56.47 69.12 54.19 C68.41 53.29 67.69 52.4 66.95 51.48 C65 49 65 49 63 46 C45.67 49.28 45.67 49.28 42 54 C41.59 57.07 41.59 57.07 41.71 60.63 C41.74 61.91 41.77 63.19 41.79 64.51 C41.84 65.86 41.89 67.21 41.94 68.56 C42.03 71.21 42.1 73.86 42.15 76.5 C42.17 77.09 42.17 77.09 42.28 80.06 C42 83 42 83 39 86 C42.63 88.31 46.26 90.62 50 93 C49 95 49 95 47.21 95.63 C42.02 96.76 37.31 97.19 32 97 C36.98 97.89 41.97 98.47 47 99 C47 99.99 47 100.98 47 102 C45.02 102.33 45.02 102.33 35 104 C35 104.66 35 105.32 35 106 C35.58 106.03 36.17 106.05 36.77 106.08 C39.43 106.19 42.09 106.31 44.75 106.44 C45.67 106.48 46.59 106.52 47.54 106.56 C48.43 106.6 49.32 106.64 50.23 106.68 C51.05 106.72 51.87 106.76 52.71 106.79 C54.9 106.99 56.88 107.4 59 108 C57.89 111.88 56.17 114.41 53 116.93 C49 119.07 44.46 119.47 40 120 C42.64 120.99 45.28 121.98 48 123 C48 126.59 47.34 127.11 45 129.69 C44.44 130.31 43.89 130.93 43.31 131.57 C42.88 132.04 42.45 132.52 42 133 C38.09 132.27 36.13 130.65 33.57 127.56 C31.14 123.59 29.7 119.29 28.27 114.86 C26.64 110 24.42 106.91 21 103 C19.69 100.83 18.44 98.62 17.25 96.38 C16.66 95.27 16.06 94.16 15.45 93.02 C14.29 90.61 13.48 88.61 13 86 C12.18 86.16 12.18 86.16 8 87 C8.54 86.46 9.07 85.93 9.62 85.38 C11 83 11 83 10.5 80.06 C9 77 9 77 6.44 74.69 C3.66 71.63 3.54 69.91 3.3 65.89 C2.9 62 2.04 58.29 1.12 54.5 C0.96 53.78 0.8 53.06 0.63 52.32 C0.13 50.28 0.13 50.28 -1 47 C-1.99 46.67 -2.98 46.34 -4 46 C-3.67 45.01 -3.34 44.02 -3 43 C-1.68 42.63 -0.34 42.29 1 42 C1.33 41.34 1.66 40.68 2 40 C4.13 44.39 4.13 44.39 3.5 47.25 C2.75 51.38 3.94 54.99 5 59 C5.19 51.77 5.31 44.99 3.45 37.98 C2.76 34.94 2.87 32.1 3 29 C2.01 29 1.02 29 0 29 C0 30.65 0 32.3 0 34 C-0.66 33.67 -1.32 33.34 -2 33 C-2.03 29.54 -2.05 26.08 -2.06 22.62 C-2.07 21.66 -2.08 20.69 -2.09 19.7 C-2.11 13.45 -2.04 7.18 -1 1 C-0.67 0.67 -0.34 0.34 0 0 Z " fill="#5bc8ec" transform="translate(122,81)"/>
<path d="M0 0 C14.85 0 29.7 0 45 0 C45.09 16.33 44.96 32.62 44.56 48.94 C44.54 49.8 44.52 50.66 44.5 51.55 C44.45 54.02 44.38 56.49 44.32 58.96 C44.31 59.33 44.31 59.33 44.27 61.2 C44.16 64.91 43.87 68.39 43 72 C42.22 72 41.45 72.01 40.65 72.01 C32.6 72.3 26.58 74.13 19.3 77.5 C12.68 80.51 7.29 82 0 82 C0 54.94 0 27.88 0 0 Z " fill="#141414" transform="translate(0,0)"/>
<path d="M0 0 C0 16.83 0 33.66 0 51 C-11.68 56.84 -20.64 54.92 -33 52 C-32.92 52.48 -32.92 52.48 -32.5 54.91 C-31.86 59.42 -31.89 63.89 -31.94 68.44 C-31.94 69.26 -31.95 70.09 -31.95 70.94 C-31.96 72.96 -31.98 74.98 -32 77 C-32.66 77.33 -32.66 77.33 -36 79 C-35.98 78.31 -35.95 77.62 -35.93 76.91 C-35.78 69.35 -36.15 62.63 -39.62 55.81 C-41.18 52.63 -41.25 50.49 -41 47 C-41.99 46.67 -42.98 46.34 -44 46 C-43.77 44.95 -43.55 43.9 -43.31 42.81 C-43 39 -43 39 -43.88 36.44 C-46.53 33.39 -49.51 31.52 -52.94 29.43 C-55 28 -55 28 -57 25 C-59.38 24.27 -59.38 24.27 -62.12 23.81 C-62.58 23.73 -62.58 23.73 -64.88 23.33 C-65.58 23.22 -66.28 23.11 -67 23 C-67 22.34 -67 21.68 -67 21 C-67.78 20.92 -68.57 20.84 -69.38 20.75 C-70.24 20.5 -71.11 20.25 -72 20 C-72.66 18.68 -73.32 17.36 -74 16 C-77.63 16 -81.26 16 -85 16 C-81 14 -81 14 -79 14 C-78.67 13.01 -78.34 12.02 -78 11 C-76.42 10.8 -74.83 10.62 -73.25 10.44 C-72.81 10.39 -72.81 10.39 -70.58 10.12 C-68.09 10 -66.38 10.4 -64 11 C-63.01 10.67 -62.02 10.34 -61 10 C-57.74 8.91 -57.13 9.08 -54 10 C-49.46 10.14 -45.43 10.11 -41 9 C-41 9.66 -41 10.32 -41 11 C-37.75 11.28 -36.27 11.17 -33.44 9.44 C-31 8 -31 8 -28.69 8.31 C-28.13 8.54 -27.57 8.77 -27 9 C-27 8.67 -27 8.34 -27 8 C-24.03 8 -21.06 8 -18 8 C-17.91 7.54 -17.91 7.54 -17.44 5.19 C-16 2 -16 2 -12.81 0.12 C-8.44 -1.16 -4.23 -2.11 0 0 Z " fill="#5bc8ec" transform="translate(244,42)"/>
<path d="M0 0 C0.27 0.58 0.54 1.16 0.81 1.75 C2.02 4.03 3.41 5.97 5 8 C5.52 7.38 6.03 6.76 6.56 6.12 C11.48 1.84 17.46 1.72 23.75 1.75 C25.04 1.74 26.34 1.74 27.67 1.73 C31 2 31 2 34 4 C37.62 3.86 41.16 3.42 44.75 3 C48 3 48 3 49.8 4.17 C51.22 6.34 52.19 8.46 53.12 10.88 C53.46 11.72 53.79 12.56 54.13 13.43 C54.99 15.97 55.66 18.33 56 21 C54.62 23.69 54.62 23.69 53 26 C52.67 26.66 52.34 27.32 52 28 C53.32 28 54.64 28 56 28 C56 30.3 56 30.3 55 33 C52.29 34.33 49.91 35.29 47.06 36.19 C39.19 38.81 39.19 38.81 37 41 C34.28 40.74 31.73 40.22 29.11 39.45 C23.2 37.75 18.2 37.4 12.5 40.25 C11 42 11 42 10.69 44.62 C11 47 11 47 12 48 C14 48.23 15.99 48.45 17.99 48.62 C20 49 20 49 23 51 C24.16 51.14 25.31 51.29 26.5 51.44 C29.97 51.99 30.98 52.26 33 55 C34.22 52.57 34.32 50.58 34.56 47.88 C34.65 46.96 34.73 46.05 34.82 45.12 C34.85 44.77 34.85 44.77 35 43 C35.99 43 36.98 43 38 43 C40.87 47.93 40.54 53.06 40.75 58.62 C40.81 59.69 40.86 60.75 40.92 61.84 C40.96 62.86 41 63.87 41.05 64.91 C41.09 65.84 41.13 66.77 41.17 67.73 C41 70 41 70 39 72 C36.38 72.12 36.38 72.12 34 72 C33.23 67.28 32.9 62.78 33 58 C32.87 58.27 32.87 58.27 32.23 59.64 C31.89 60.36 31.54 61.08 31.19 61.81 C31.02 62.17 31.02 62.17 30.17 63.96 C28.99 66.02 27.68 67.35 26 69 C25.31 71.19 25.31 71.19 25 73 C25.56 72.77 26.11 72.55 26.69 72.31 C29.95 71.87 31.29 73.22 34 75 C35.65 75.7 37.32 76.37 39 77 C38.45 78.92 38.45 78.92 37 81 C31.92 82.46 27.2 82.67 22 82 C18.5 79.63 16.87 76.73 15 73 C14.54 72.1 14.09 71.2 13.62 70.28 C12.79 68.59 11.99 66.89 11.24 65.16 C10 63 10 63 7.92 61.46 C6 60 6 60 5.19 58.08 C4.97 55.68 5.36 54.01 6 51.69 C8.01 42.59 6.37 33.11 5 24 C4.34 24 3.68 24 3 24 C2.67 19.38 2.34 14.76 2 10 C1.34 10 0.68 10 0 10 C-0.19 8.52 -0.38 7.04 -0.56 5.56 C-0.67 4.74 -0.77 3.92 -0.88 3.07 C-0.92 2.38 -0.96 1.7 -1 1 C-0.67 0.67 -0.34 0.34 0 0 Z " fill="#f6a8d2" transform="translate(122,93)"/>
<path d="M0 0 C4.92 1.16 7.02 4.11 9.96 7.93 C11 10 11 10 10.66 12.26 C10.44 12.83 10.23 13.41 10 14 C12 13 12 13 14 10 C14.67 13.03 15.14 15.9 15 19 C12.62 21.69 12.62 21.69 10 24 C9.19 27.31 9.19 27.31 9 30 C9.99 29.67 10.98 29.34 12 29 C13.19 26.44 13.19 26.44 14 24 C15.32 24.33 16.64 24.66 18 25 C18.17 22.13 18.34 19.25 18.5 16.38 C18.55 15.57 18.6 14.76 18.64 13.93 C18.89 9.61 19.06 5.32 19 1 C20.94 1.38 20.94 1.38 23 2 C24.84 5.69 23.51 10.02 23 14 C22.9 14.91 22.8 15.82 22.7 16.75 C21.81 23.1 19.88 27.53 16.24 32.81 C15 35 15 35 15 39 C16.26 42.07 17.67 45.04 19.1 48.03 C20 51 20 51 19.31 53.83 C18 56 18 56 15.38 56.81 C14.98 56.84 14.98 56.84 13 57 C11.88 53.25 11.88 53.25 13 51 C13.07 49.13 13.08 47.25 13.06 45.38 C13.05 44.37 13.04 43.37 13.04 42.34 C13.02 41.57 13.01 40.79 13 40 C11.02 39.01 9.04 38.02 7 37 C6.9 37.82 6.8 38.64 6.7 39.49 C5.54 48.16 4.37 56.63 -2 63 C-2 52.44 -2 41.88 -2 31 C-8.75 41.12 -8.75 41.12 -9.38 46.06 C-9.51 47 -9.64 47.94 -9.77 48.91 C-9.85 49.6 -9.92 50.29 -10 51 C-16.68 48.01 -21.34 42.19 -25 36 C-26.79 30.64 -26.96 25 -24.5 19.88 C-24 19.26 -23.51 18.64 -23 18 C-20.03 18.33 -17.06 18.66 -14 19 C-14.33 19.99 -14.66 20.98 -15 22 C-14.48 21.67 -13.97 21.34 -13.44 21 C-10.19 19.67 -7.48 19.81 -4 20 C-3.34 20.33 -2.68 20.66 -2 21 C-2.41 20.47 -2.82 19.94 -3.24 19.39 C-3.78 18.68 -4.32 17.98 -4.88 17.25 C-5.41 16.55 -5.94 15.86 -6.49 15.14 C-9.21 11.28 -10.26 8.76 -10 4 C-2.55 4.61 -2.55 4.61 -0.06 6.38 C1 8 1 8 2 11 C1.86 9.74 1.71 8.48 1.56 7.19 C1.48 6.48 1.4 5.77 1.32 5.04 C1 3 1 3 0 0 Z " fill="#f6a8d2" transform="translate(197,119)"/>
<path d="M0 0 C4.75 2.6 6.06 6.91 8 11.69 C8.35 12.53 8.7 13.37 9.06 14.23 C11.8 21 13.57 27.71 14.92 34.88 C16.23 38.65 17.52 39.27 21 41 C21 41.66 21 42.32 21 43 C22.05 42.5 23.1 42.01 24.19 41.5 C27.25 40.17 29.62 39.69 33 40 C30.46 42.97 27.51 44.36 24 46 C24.33 47.98 24.66 49.96 25 52 C23.68 51.67 22.36 51.34 21 51 C21.07 51.53 21.07 51.53 21.4 54.21 C23.09 68.44 23.6 82.68 24 97 C23.34 97.16 23.34 97.16 20 98 C20 98.66 20 99.32 20 100 C21.32 100.66 22.64 101.32 24 102 C24 102.99 24 103.98 24 105 C21.03 105.99 18.06 106.98 15 108 C14.96 107.21 14.93 106.43 14.89 105.62 C14.33 96.74 14.33 96.74 12.38 92.38 C10.49 87.74 11.04 83.84 12 79 C12.33 78.34 12.66 77.68 13 77 C14.76 64.04 9.26 49.69 5.94 37.31 C5.81 36.85 5.81 36.85 5.19 34.52 C3.4 27.99 1.17 22.03 -2.06 16.06 C-4.07 12.13 -5.08 8.31 -6 4 C-4.02 2.68 -2.04 1.36 0 0 Z " fill="#5bc8ec" transform="translate(67,79)"/>
<path d="M0 0 C0.66 0 1.32 0 2 0 C2.33 1.32 2.66 2.64 3 4 C4.32 4 5.64 4 7 4 C7 6.31 7 8.62 7 11 C6.01 11.33 5.02 11.66 4 12 C3.31 14.06 3.31 14.06 3 16 C3.99 16 4.98 16 6 16 C6 15.34 6 14.68 6 14 C14.26 11.72 23.85 10.22 32.11 13.08 C35.4 14.13 36.69 13.75 40 13 C42.88 12.96 45.75 13.13 48.62 13.31 C49.39 13.35 50.15 13.38 50.94 13.42 C54.73 13.64 56.78 13.85 60 16 C62.14 21.51 62.25 26.58 62.12 32.44 C62.12 33.26 62.11 34.09 62.1 34.94 C62.07 36.96 62.04 38.98 62 41 C62.92 40.82 63.84 40.63 64.79 40.44 C68.47 39.94 70.6 40.62 74 42 C73.84 42.33 73.84 42.33 73 44 C70.36 43.34 67.72 42.68 65 42 C65.33 43.32 65.33 43.32 67 50 C66.77 49.65 66.77 49.65 65.62 47.88 C63 46 63 46 60.75 46.11 C58.13 46.64 55.58 47.29 53 48 C51.72 48.29 50.44 48.58 49.12 48.88 C45.64 50.13 44.28 51.11 42 54 C41.55 56.93 41.55 56.93 41.61 60.3 C41.62 61.5 41.64 62.71 41.65 63.95 C41.67 64.58 41.67 64.58 41.75 67.75 C41.77 69.02 41.79 70.29 41.8 71.6 C41.85 74.73 41.92 77.87 42 81 C41.67 80.84 41.67 80.84 40 80 C39.99 79.69 39.99 79.69 39.94 78.14 C39.84 75.34 39.73 72.55 39.62 69.75 C39.61 69.27 39.61 69.27 39.53 66.82 C39.51 66.35 39.51 66.35 39.41 63.98 C39.38 63.13 39.35 62.27 39.32 61.38 C38.98 58.87 38.26 57.18 37 55 C36.67 55 36.34 55 36 55 C35.98 55.34 35.98 55.34 35.89 57.08 C35.82 57.98 35.76 58.88 35.69 59.81 C35.66 60.26 35.66 60.26 35.51 62.52 C34.94 65.31 34.18 66.24 32 68 C31.34 67.01 30.68 66.02 30 65 C27.87 64.3 27.87 64.3 25.44 63.88 C21.08 63.08 21.08 63.08 20 62 C17.97 61.77 15.94 61.55 13.91 61.38 C12 61 12 61 10 59 C9.56 56.62 9.56 56.62 10 54 C13.15 50.46 16.18 49.34 20.89 48.95 C24.43 49.03 27.62 50.01 31 51 C34.37 51.75 34.37 51.75 37 52 C37.66 51.34 38.32 50.68 39 50 C40.94 49.28 42.9 48.62 44.88 48 C52.2 45.7 52.2 45.7 55 44 C55.75 41.88 55.75 41.88 56 40 C55.18 40.16 55.18 40.16 51 41 C51.29 40.44 51.58 39.89 51.88 39.31 C52.25 38.55 52.62 37.79 53 37 C53.39 36.25 53.78 35.5 54.18 34.73 C55.25 31.15 54.5 29.4 53.19 25.94 C50.74 19.31 50.74 19.31 50 16 C48.88 16.1 47.76 16.19 46.61 16.29 C45.13 16.4 43.66 16.51 42.19 16.62 C41.45 16.69 40.71 16.75 39.95 16.82 C34.34 17.23 34.34 17.23 31 15 C22.99 14.35 14.66 14.4 7 17 C5.77 19.08 5.77 19.08 5 21 C2.75 18.31 1.12 16.35 0 13 C0 15.97 0 18.94 0 22 C0.66 22 1.32 22 2 22 C2.33 24.31 2.66 26.62 3 29 C2.01 29 1.02 29 0 29 C0 30.65 0 32.3 0 34 C-0.66 33.67 -1.32 33.34 -2 33 C-2.03 29.54 -2.05 26.08 -2.06 22.62 C-2.07 21.66 -2.08 20.69 -2.09 19.7 C-2.11 13.45 -2.04 7.18 -1 1 C-0.67 0.67 -0.34 0.34 0 0 Z " fill="#5bc8ec" transform="translate(122,81)"/>
<path d="M0 0 C2.44 1.19 2.44 1.19 5 3 C6.24 7.11 6.2 11.34 6.28 15.6 C6.29 15.96 6.29 15.96 6.34 17.78 C6.42 20.84 6.48 23.89 6.55 26.95 C6.6 29.19 6.66 31.43 6.72 33.66 C6.73 34.35 6.75 35.05 6.76 35.76 C6.84 38.76 7.04 41.13 8 44 C6.62 46.69 6.62 46.69 5 49 C4.67 49 4.34 49 4 49 C4 38.44 4 27.88 4 17 C-2.75 27.12 -2.75 27.12 -3.38 32.06 C-3.51 33 -3.64 33.94 -3.77 34.91 C-3.85 35.6 -3.92 36.29 -4 37 C-10.68 34.01 -15.34 28.19 -19 22 C-20.79 16.64 -20.96 11 -18.5 5.88 C-18 5.26 -17.51 4.64 -17 4 C-14.03 4.33 -11.06 4.66 -8 5 C-8.33 5.99 -8.66 6.98 -9 8 C-8.48 7.67 -7.97 7.34 -7.44 7 C-4.19 5.67 -1.48 5.81 2 6 C2.66 6.33 3.32 6.66 4 7 C3.67 6.61 3.67 6.61 2 4.62 C0 2 0 2 0 0 Z " fill="#5bc8ec" transform="translate(191,133)"/>
<path d="M0 0 C1.65 0 3.3 0 5 0 C5.33 0.99 5.66 1.98 6 3 C5.34 3 4.68 3 4 3 C4.19 4.81 4.19 4.81 5 7 C5.74 7.41 6.48 7.82 7.25 8.25 C14.55 12.89 17 22.62 19.75 30.38 C20.15 31.45 20.55 32.52 20.96 33.62 C26.79 49.88 26.79 49.88 23.35 57.26 C22.61 58.56 21.85 59.85 21.06 61.12 C20.68 61.8 20.29 62.47 19.89 63.16 C18.95 64.78 17.98 66.39 17 68 C16.67 68 16.34 68 16 68 C16.06 67.36 16.12 66.71 16.18 66.05 C16.61 57.31 14.25 49.75 9.94 42.13 C8.84 39.64 8.7 37.75 8.61 35.04 C8.07 24.16 7.6 15.69 1.46 6.43 C0 4 0 4 0 0 Z " fill="#5bc8ec" transform="translate(89,219)"/>
<path d="M0 0 C1.65 0 3.3 0 5 0 C6.25 13.66 6.25 13.66 5.56 18.19 C5.1 21.35 4.96 24.08 5 27.25 C5.06 33.19 4.8 39.11 4 45 C3.67 45.33 3.34 45.66 3 46 C2.96 48 2.96 50 3 52 C3 54.54 2.98 57.08 2.94 59.62 C3 63 3 63 4 65 C3.91 66.71 3.76 68.42 3.56 70.12 C3.46 71.04 3.36 71.95 3.25 72.88 C3.17 73.58 3.09 74.28 3 75 C2.22 75.29 1.43 75.58 0.62 75.88 C-2 77 -2 77 -4 79 C-5.99 79.4 -7.99 79.74 -10 80 C-8.26 84.23 -6.46 88.13 -4 92 C-7.91 90.74 -9.24 88.35 -11.12 84.82 C-12.2 82.59 -13.15 80.33 -14 78 C-12.76 77.92 -11.52 77.83 -10.25 77.75 C-7.01 77.37 -6.12 77.1 -3.5 74.94 C-3.01 74.3 -2.51 73.66 -2 73 C-4.64 73 -7.28 73 -10 73 C-10 72.67 -10 72.34 -10 72 C-7.36 72 -4.72 72 -2 72 C-1.34 48.24 -0.68 24.48 0 0 Z " fill="#f6a8d2" transform="translate(45,0)"/>
<path d="M0 0 C0 0.99 0 1.98 0 3 C-0.49 3.43 -0.98 3.86 -1.48 4.3 C-3.74 6.83 -3.34 8.86 -3.29 12.2 C-3.28 13.41 -3.27 14.62 -3.26 15.86 C-3.24 17.12 -3.21 18.39 -3.19 19.69 C-3.17 20.96 -3.16 22.24 -3.15 23.55 C-3.11 26.7 -3.06 29.85 -3 33 C-3.66 32.67 -4.32 32.34 -5 32 C-5.02 31.38 -5.04 30.77 -5.06 30.14 C-5.16 27.34 -5.27 24.55 -5.38 21.75 C-5.41 20.78 -5.44 19.81 -5.47 18.82 C-5.51 17.88 -5.55 16.95 -5.59 15.98 C-5.6 15.55 -5.6 15.55 -5.68 13.38 C-6.02 10.87 -6.74 9.18 -8 7 C-8.33 7 -8.66 7 -9 7 C-9.04 7.69 -9.07 8.37 -9.11 9.08 C-9.18 9.98 -9.24 10.88 -9.31 11.81 C-9.37 12.71 -9.43 13.6 -9.49 14.52 C-10.06 17.31 -10.82 18.24 -13 20 C-13.66 19.01 -14.32 18.02 -15 17 C-17.13 16.3 -17.13 16.3 -19.56 15.88 C-23.92 15.08 -23.92 15.08 -25 14 C-27.03 13.77 -29.06 13.55 -31.09 13.38 C-33 13 -33 13 -35 11 C-35.44 8.62 -35.44 8.62 -35 6 C-31.85 2.46 -28.82 1.34 -24.11 0.95 C-20.57 1.03 -17.38 2.01 -14 3 C-10.62 3.75 -10.62 3.75 -8 4 C-7.34 3.34 -6.68 2.68 -6 2 C-4.02 1.29 -2.02 0.61 0 0 Z " fill="#5bc8ec" transform="translate(167,129)"/>
<path d="M0 0 C3.65 0.61 5.86 2.17 8.75 4.44 C9.55 5.05 10.35 5.67 11.17 6.31 C11.47 6.59 11.47 6.59 13 8 C13 8.66 13 9.32 13 10 C13.57 10.28 14.15 10.55 14.74 10.83 C18.94 13 22.29 15.03 25 19 C25.99 24.18 25.76 29.21 25.5 34.44 C25.46 35.85 25.42 37.26 25.39 38.68 C25.3 42.12 25.17 45.56 25 49 C24.5 48.84 24.5 48.84 22 48 C22.19 47.42 22.37 46.84 22.56 46.25 C23.04 43.79 22.76 42.36 22 40 C20.35 39.67 18.7 39.34 17 39 C16.97 38.72 16.97 38.72 16.82 37.28 C16.64 35.67 16.46 34.05 16.26 32.45 C16.04 30.41 15.94 28.36 15.88 26.31 C14.9 22.61 14.44 22.36 11.5 20.25 C8.88 18.3 8.1 17.51 7.46 14.25 C7.36 12.3 7.33 10.34 7.36 8.39 C7.24 7.6 7.12 6.81 7 6 C5.09 4.77 5.09 4.77 3 4 C1.25 2.44 1.25 2.44 0 1 C0 0.67 0 0.34 0 0 Z " fill="#5bc8ec" transform="translate(219,172)"/>
<path d="M0 0 C-0.33 0.66 -0.66 1.32 -1 2 C-3.5 2.41 -3.5 2.41 -6.56 2.62 C-7.57 2.7 -8.59 2.77 -9.63 2.85 C-10.41 2.9 -11.19 2.95 -12 3 C-12.33 4.65 -12.66 6.3 -13 8 C-13.66 7.67 -14.32 7.34 -15 7 C-15.62 4.94 -15.62 4.94 -16 3 C-16.66 3 -17.32 3 -18 3 C-17.34 4.32 -16.68 5.64 -16 7 C-16.66 7.66 -17.32 8.32 -18 9 C-17.34 9.66 -16.68 10.32 -16 11 C-13.88 10.62 -13.88 10.62 -12 10 C-11.67 11.32 -11.34 12.64 -11 14 C-12.09 14.1 -13.19 14.21 -14.31 14.31 C-19.06 15.2 -19.06 15.2 -21 18 C-21.33 18.99 -21.66 19.98 -22 21 C-18.7 21.33 -15.4 21.66 -12 22 C-12 22.66 -12 23.32 -12 24 C-16.95 24 -21.9 24 -27 24 C-28.69 20.62 -28.18 16.83 -28.19 13.12 C-28.2 12.31 -28.21 11.49 -28.22 10.65 C-28.23 9.86 -28.23 9.07 -28.23 8.26 C-28.23 7.54 -28.24 6.82 -28.24 6.07 C-27.96 3.65 -27.28 2.07 -26 0 C-19.06 -3.47 -7.5 -0.75 0 0 Z " fill="#f6a8d2" transform="translate(57,206)"/>
<path d="M0 0 C0.33 0 0.66 0 1 0 C1 3.3 1 6.6 1 10 C5.62 10 10.24 10 15 10 C13.43 13.13 11.91 15.58 9.88 18.38 C7.23 22.24 6.89 24.32 7 29 C4.75 31.38 4.75 31.38 2 33 C0.68 33 -0.64 33 -2 33 C-1.57 30.11 -0.89 28.87 1 26.56 C3.08 23.9 3.62 22.3 4 19 C-0.68 20.48 -0.68 20.48 -2.31 23.12 C-2.43 23.43 -2.43 23.43 -3 25 C-3.66 25 -4.32 25 -5 25 C-5.33 25.82 -5.33 25.82 -7 30 C-7.99 30 -8.98 30 -10 30 C-9.58 22.5 -7.53 16.74 -4.44 9.94 C-4.01 8.98 -3.59 8.02 -3.15 7.03 C-2.11 4.68 -1.06 2.34 0 0 Z " fill="#f6a8d2" transform="translate(115,158)"/>
<path d="M0 0 C0.77 0 1.53 0.01 2.32 0.01 C2.74 0.01 2.74 0.01 4.86 0.02 C5.3 0.02 5.3 0.02 7.51 0.06 C8.39 0.06 9.26 0.06 10.16 0.06 C16.65 0.1 16.65 0.1 20.08 1.24 C20.08 1.9 20.08 2.56 20.08 3.24 C18.43 3.24 16.78 3.24 15.08 3.24 C15.41 4.23 15.74 5.22 16.08 6.24 C15.09 6.9 14.1 7.56 13.08 8.24 C11.58 6.87 11.58 6.87 10.08 5.24 C10.08 4.58 10.08 3.92 10.08 3.24 C7.77 3.24 5.46 3.24 3.08 3.24 C3.41 3.74 3.41 3.74 5.08 6.24 C6.04 10.22 6.45 12.4 4.76 16.18 C4.49 16.52 4.49 16.52 3.08 18.24 C2.42 18.24 1.76 18.24 1.08 18.24 C1.41 19.23 1.74 20.22 2.08 21.24 C8.27 21.97 14.44 22.49 20.67 22.86 C21.07 22.93 21.07 22.93 23.08 23.24 C23.41 23.9 23.74 24.56 24.08 25.24 C19.97 25.3 15.87 25.34 11.76 25.37 C10.6 25.38 9.43 25.4 8.23 25.42 C7.67 25.42 7.67 25.42 4.84 25.44 C4.32 25.44 4.32 25.44 1.71 25.47 C-0.92 25.24 -0.92 25.24 -3.92 23.24 C-4.3 21.12 -4.3 21.12 -4.29 18.52 C-4.29 17.59 -4.29 16.66 -4.28 15.7 C-4.27 14.72 -4.25 13.75 -4.24 12.74 C-4.24 12.26 -4.24 12.26 -4.25 9.79 C-4.18 0.53 -4.18 0.53 0 0 Z " fill="#f6a8d2" transform="translate(34.923583984375,152.757080078125)"/>
<path d="M0 0 C4.59 1.49 7.44 3.85 11 7 C10.67 7.99 10.34 8.98 10 10 C10.76 9.5 11.53 9.01 12.31 8.5 C17.28 6.48 21.71 6.75 27 7 C26.4 10.38 25.42 12.53 23 15 C20.18 15.45 20.18 15.45 16.8 15.39 C15.59 15.38 14.38 15.36 13.14 15.35 C11.88 15.32 10.61 15.28 9.31 15.25 C8.04 15.23 6.76 15.21 5.45 15.2 C2.3 15.15 -0.85 15.08 -4 15 C-4.92 10.33 -5.11 8.23 -2.56 4.12 C-2.09 3.34 -1.62 2.56 -1.13 1.76 C-0.76 1.18 -0.38 0.6 0 0 Z " fill="#5bc8ec" transform="translate(114,285)"/>
<path d="M0 0 C2.68 -0.22 4.42 -0.35 6.75 1.06 C8.64 4 8.82 6.54 9 10 C8.38 11.68 7.71 13.35 7 15 C6.06 20.09 5.97 23.85 7 29 C5.51 29.99 5.51 29.99 -2 35 C-1.99 33.95 -1.98 32.9 -1.96 31.82 C-1.96 30.45 -1.95 29.07 -1.94 27.69 C-1.93 27 -1.92 26.31 -1.91 25.6 C-1.9 22.45 -2 20.01 -3 17 C-3.65 10.62 -2.55 5.84 0 0 Z " fill="#fbfaf7" transform="translate(132,99)"/>
<path d="M0 0 C2.38 3.18 4.26 6.44 6 10 C-0.43 16.08 -7.13 20.08 -15 24 C-15.99 23.34 -16.98 22.68 -18 22 C-17.59 16.7 -16.99 14.47 -13 11 C-11.8 9.66 -10.61 8.3 -9.44 6.94 C-8.3 5.62 -7.15 4.3 -6 3 C-5.5 2.42 -4.99 1.85 -4.47 1.25 C-3 0 -3 0 0 0 Z " fill="#5bc8ec" transform="translate(84,201)"/>
<path d="M0 0 C1.94 0.38 1.94 0.38 4 1 C5.84 4.69 4.51 9.02 4 13 C3.9 13.91 3.8 14.82 3.7 15.75 C2.81 22.1 0.88 26.53 -2.76 31.81 C-4 34 -4 34 -4 38 C-2.74 41.07 -1.33 44.04 0.1 47.03 C1 50 1 50 0.31 52.83 C-1 55 -1 55 -3.62 55.81 C-4.02 55.84 -4.02 55.84 -6 56 C-7.12 52.25 -7.12 52.25 -6 50 C-5.93 48.13 -5.92 46.25 -5.94 44.38 C-5.94 43.87 -5.94 43.87 -5.96 41.34 C-5.98 40.57 -5.99 39.79 -6 39 C-7.98 38.01 -9.96 37.02 -12 36 C-12.33 36.99 -12.66 37.98 -13 39 C-13.29 30.43 -13.29 30.43 -11 27 C-10.67 27.66 -10.34 28.32 -10 29 C-9.01 28.67 -8.02 28.34 -7 28 C-5.81 25.44 -5.81 25.44 -5 23 C-3.68 23.33 -2.36 23.66 -1 24 C-0.83 21.13 -0.66 18.25 -0.5 15.38 C-0.45 14.57 -0.4 13.76 -0.36 12.93 C-0.11 8.61 0.06 4.32 0 0 Z " fill="#5bc8ec" transform="translate(216,120)"/>
<path d="M0 0 C5.69 0.97 8.2 3.9 11.45 8.36 C14.94 14.31 16.56 21.11 16 28 C16.66 28 17.32 28 18 28 C18.92 30.77 19.12 32.38 19.1 35.23 C19.09 36.03 19.09 36.84 19.09 37.66 C19.08 38.5 19.07 39.33 19.06 40.19 C19.06 41.03 19.05 41.88 19.05 42.75 C19.04 44.83 19.02 46.92 19 49 C17.68 49.66 16.36 50.32 15 51 C15.02 50.31 15.05 49.62 15.07 48.91 C15.22 41.35 14.85 34.63 11.38 27.81 C9.82 24.63 9.75 22.49 10 19 C9.01 18.67 8.02 18.34 7 18 C7.23 16.95 7.45 15.9 7.69 14.81 C8.04 10.52 7.71 9.26 5 6 C3.34 4.99 1.67 3.99 0 3 C0 2.01 0 1.02 0 0 Z " fill="#f6a8d2" transform="translate(193,70)"/>
<path d="M0 0 C1.68 0.29 3.34 0.62 5 1 C4.55 5.65 4.07 8.46 1 12 C0.57 12.87 0.13 13.73 -0.31 14.62 C-2.49 17.69 -4.42 18.13 -8 19 C-14 11.32 -14 11.32 -14 7 C-12.45 4.28 -11.57 3.18 -8.55 2.21 C-7.67 2.08 -6.79 1.95 -5.88 1.81 C-1.07 1.07 -1.07 1.07 0 0 Z " fill="#f6a8d2" transform="translate(186,141)"/>
<path d="M0 0 C0.99 0.33 1.98 0.66 3 1 C3.09 9.53 2.07 15.21 -3.11 22.07 C-6.06 25.08 -8.04 25.96 -12.25 26.12 C-13.16 26.08 -14.06 26.04 -15 26 C-12.45 16.78 -12.45 16.78 -8 14 C-7.48 13.11 -6.97 12.23 -6.44 11.31 C-5.96 10.55 -5.49 9.79 -5 9 C-4.01 9 -3.02 9 -2 9 C-2.04 7.89 -2.08 6.77 -2.12 5.62 C-2 2 -2 2 0 0 Z " fill="#5bc8ec" transform="translate(112,140)"/>
<path d="M0 0 C0.99 0.33 1.98 0.66 3 1 C3.08 1.61 3.17 2.21 3.26 2.84 C5.12 15.89 7.65 28.33 11.8 40.86 C12.1 41.77 12.4 42.68 12.71 43.62 C12.98 44.42 13.25 45.22 13.53 46.04 C14 48 14 48 13 50 C5.64 35.92 0.87 22.67 -2 7 C-2.33 5.33 -2.66 3.67 -3 2 C-2.01 1.34 -1.02 0.68 0 0 Z " fill="#5bc8ec" transform="translate(77,227)"/>
<path d="M0 0 C0.21 0.62 0.41 1.24 0.62 1.88 C2.54 4.83 4.73 4.96 8 6 C8.33 6.99 8.66 7.98 9 9 C10.05 8.5 11.1 8.01 12.19 7.5 C15.25 6.17 17.62 5.69 21 6 C18.46 8.97 15.51 10.36 12 12 C12.33 13.98 12.66 15.96 13 18 C11.68 17.67 10.36 17.34 9 17 C8.67 20.3 8.34 23.6 8 27 C7.34 27 6.68 27 6 27 C2.96 23.04 2.45 19.46 1.94 14.56 C1.43 9.76 0.69 5.54 -1 1 C-0.67 0.67 -0.34 0.34 0 0 Z " fill="#5bc8ec" transform="translate(79,113)"/>
<path d="M0 0 C4.59 2.58 5.87 6.47 7.75 11.12 C8.07 11.85 8.38 12.57 8.71 13.31 C10.94 18.75 11.3 23.13 11 29 C4.87 26.37 2.88 20.08 0.52 14.2 C0.26 13.56 0.01 12.91 -0.25 12.25 C-0.52 11.59 -0.79 10.93 -1.06 10.25 C-2.22 7.35 -3 5.16 -3 2 C-2.01 1.34 -1.02 0.68 0 0 Z " fill="#f6a8d2" transform="translate(67,79)"/>
<path d="M0 0 C4.42 1.61 7.77 3.58 12 6 C12 13.59 12 21.18 12 29 C11.01 28.67 10.02 28.34 9 28 C9.19 27.42 9.37 26.84 9.56 26.25 C10.04 23.79 9.76 22.36 9 20 C7.35 19.67 5.7 19.34 4 19 C3.94 18.43 3.88 17.86 3.82 17.28 C3.55 14.85 3.28 12.43 3 10 C2.86 8.72 2.71 7.44 2.56 6.12 C2 3 2 3 0 0 Z " fill="#5bc8ec" transform="translate(232,192)"/>
<path d="M0 0 C0.64 0.05 0.64 0.05 3.86 0.31 C4.83 0.39 5.81 0.48 6.81 0.56 C6.48 1.22 6.15 1.88 5.81 2.56 C3.31 2.98 3.31 2.98 0.25 3.19 C-0.76 3.26 -1.77 3.34 -2.82 3.41 C-3.6 3.46 -4.38 3.51 -5.19 3.56 C-5.52 5.21 -5.85 6.86 -6.19 8.56 C-6.85 8.23 -7.51 7.9 -8.19 7.56 C-8.81 5.5 -8.81 5.5 -9.19 3.56 C-9.85 3.56 -10.51 3.56 -11.19 3.56 C-10.53 4.88 -9.87 6.2 -9.19 7.56 C-9.85 8.22 -10.51 8.88 -11.19 9.56 C-10.53 10.22 -9.87 10.88 -9.19 11.56 C-7.06 11.19 -7.06 11.19 -5.19 10.56 C-4.86 11.88 -4.53 13.2 -4.19 14.56 C-5.28 14.67 -6.37 14.77 -7.5 14.88 C-12.12 15.74 -12.12 15.74 -14.19 18.56 C-14.85 19.55 -15.51 20.54 -16.19 21.56 C-17.19 20.56 -17.19 20.56 -17.32 17.91 C-17.32 16.83 -17.32 15.74 -17.31 14.62 C-17.32 13.54 -17.32 12.46 -17.32 11.35 C-17.19 8.56 -17.19 8.56 -16.19 6.56 C-14.87 6.56 -13.55 6.56 -12.19 6.56 C-13.18 6.23 -14.17 5.9 -15.19 5.56 C-14.86 4.57 -14.53 3.58 -14.19 2.56 C-12.87 2.56 -11.55 2.56 -10.19 2.56 C-10.19 1.9 -10.19 1.24 -10.19 0.56 C-6.52 -0.66 -3.85 -0.32 0 0 Z " fill="#5bc8ec" transform="translate(50.1875,205.4375)"/>
<path d="M0 0 C0.95 0.35 1.9 0.7 2.88 1.06 C2.88 2.05 2.88 3.04 2.88 4.06 C1.88 4.39 0.89 4.72 -0.12 5.06 C0.68 5.31 1.48 5.56 2.31 5.81 C4.88 7.06 4.88 7.06 5.75 9 C5.88 11.06 5.88 11.06 4.88 14.06 C2.56 14.06 0.25 14.06 -2.12 14.06 C-2.12 13.4 -2.12 12.74 -2.12 12.06 C-3.45 11.73 -4.77 11.4 -6.12 11.06 C-5.8 9.08 -5.46 7.1 -5.12 5.06 C-7.44 5.06 -9.75 5.06 -12.12 5.06 C-12.45 4.07 -12.79 3.08 -13.12 2.06 C-12.8 1.4 -12.46 0.74 -12.12 0.06 C-11.01 0.08 -9.9 0.1 -8.75 0.12 C-0.08 -0.02 -0.08 -0.02 0 0 Z " fill="#f6a8d2" transform="translate(34.125,285.9375)"/>
<path d="M0 0 C0.33 0 0.66 0 1 0 C1.33 3.96 1.66 7.92 2 12 C2.99 12.33 3.98 12.66 5 13 C5 13.66 5 14.32 5 15 C4.34 15 3.68 15 3 15 C3.99 16.98 4.98 18.96 6 21 C5.34 21.33 4.68 21.66 4 22 C3.67 22.99 3.34 23.98 3 25 C3.66 25 4.32 25 5 25 C5 25.66 5 26.32 5 27 C4.34 27 3.68 27 3 27 C3.37 27.76 3.74 28.53 4.12 29.31 C4.41 30.2 4.7 31.09 5 32 C4.34 32.99 3.68 33.98 3 35 C3.66 35.99 4.32 36.98 5 38 C4.01 38 3.02 38 2 38 C2 39.32 2 40.64 2 42 C2.66 42 3.32 42 4 42 C4 42.66 4 43.32 4 44 C2.35 43.67 0.7 43.34 -1 43 C-1.07 33.19 -0.87 23.43 -0.5 13.62 C-0.45 12.29 -0.4 10.96 -0.36 9.62 C-0.24 6.42 -0.12 3.21 0 0 Z " fill="#5bc8ec" transform="translate(42,106)"/>
<path d="M0 0 C0.69 2.81 0.69 2.81 1 6 C-0.47 8.24 -1.54 8.85 -4.06 9.69 C-6 10 -6 10 -8 10 C-8.33 10.5 -8.33 10.5 -10 13 C-10.33 13.5 -10.33 13.5 -12 16 C-12.66 16 -13.32 16 -14 16 C-14.66 12.7 -15.32 9.4 -16 6 C-6.75 -0.31 -6.75 -0.31 0 0 Z " fill="#5bc8ec" transform="translate(220,248)"/>
<path d="M0 0 C1.44 1.56 1.44 1.56 1.44 4.56 C0.9 4.54 0.9 4.54 -1.81 4.44 C-5.56 4.56 -5.56 4.56 -7.75 5.69 C-8.35 5.98 -8.95 6.26 -9.56 6.56 C-11.81 5.69 -11.81 5.69 -13.56 4.56 C-14.22 5.22 -14.88 5.88 -15.56 6.56 C-17.69 6.19 -17.69 6.19 -19.56 5.56 C-19.81 3.25 -19.81 3.25 -19.56 0.56 C-13.91 -5.09 -6.46 -3.62 0 0 Z " fill="#141414" transform="translate(154.5625,134.4375)"/>
<path d="M0 0 C2.44 -0.03 4.87 -0.05 7.31 -0.06 C8 -0.07 8.69 -0.08 9.4 -0.09 C12.55 -0.1 14.99 -0 18 1 C18 1.66 18 2.32 18 3 C16.35 3 14.7 3 13 3 C13.33 3.99 13.66 4.98 14 6 C13.01 6.66 12.02 7.32 11 8 C9.5 6.62 9.5 6.62 8 5 C8 4.34 8 3.68 8 3 C5.69 3 3.38 3 1 3 C1.33 3.5 1.33 3.5 3 6 C3.96 9.98 4.38 12.15 2.69 15.94 C2.41 16.28 2.41 16.28 1 18 C0.34 18 -0.32 18 -1 18 C-1 18.99 -1 19.98 -1 21 C-1.66 20.67 -2.32 20.34 -3 20 C-2.69 17.23 -2.38 14.46 -2.06 11.69 C-1.98 10.9 -1.89 10.12 -1.8 9.31 C-1.71 8.55 -1.62 7.79 -1.54 7.01 C-1.5 6.66 -1.5 6.66 -1.3 4.9 C-1 3 -1 3 0 0 Z " fill="#5bc8ec" transform="translate(37,153)"/>
<path d="M0 0 C0.66 0.33 1.32 0.66 2 1 C2.19 6.4 2.09 10.91 0 16 C-2.92 18.32 -4.27 19 -8 19 C-8.34 14.95 -8.54 11.04 -8 7 C-5.12 4.44 -5.12 4.44 -2 3 C-1.34 2.01 -0.68 1.02 0 0 Z " fill="#5bc8ec" transform="translate(197,261)"/>
<path d="M0 0 C0.99 0 1.98 0 3 0 C2.89 7.35 2.78 14.69 2.66 22.04 C2.61 25.45 2.55 28.86 2.5 32.27 C2.45 36.19 2.38 40.12 2.32 44.04 C2.3 45.26 2.28 46.48 2.27 47.74 C2.25 48.88 2.23 50.02 2.21 51.2 C2.19 52.2 2.17 53.2 2.16 54.23 C2 56.91 1.6 59.39 1 62 C0.67 62 0.34 62 0 62 C-0.17 54.62 -0.33 47.23 -0.48 39.85 C-0.54 37.34 -0.59 34.83 -0.65 32.32 C-0.73 28.71 -0.81 25.09 -0.88 21.47 C-0.89 20.92 -0.89 20.92 -0.96 18.1 C-1.08 11.96 -0.83 6.09 0 0 Z " fill="#5bc8ec" transform="translate(67,0)"/>
<path d="M0 0 C0.33 0 0.66 0 1 0 C2.57 4.96 3.45 9.66 3.75 14.88 C3.79 15.57 3.83 16.27 3.88 16.99 C4.12 22.41 3.71 26.87 2 32 C1.67 32.16 1.67 32.16 0 33 C-0.28 31.75 -0.55 30.49 -0.84 29.2 C-1.21 27.55 -1.57 25.9 -1.94 24.25 C-2.12 23.43 -2.3 22.6 -2.49 21.75 C-2.58 21.35 -2.58 21.35 -3.03 19.33 C-3.19 18.59 -3.35 17.86 -3.52 17.11 C-3.68 16.41 -3.84 15.72 -4 15 C-4.12 14.27 -4.25 13.54 -4.37 12.79 C-4.58 12.2 -4.79 11.61 -5 11 C-5.99 10.67 -6.98 10.34 -8 10 C-7.67 9.01 -7.34 8.02 -7 7 C-5.68 6.63 -4.34 6.29 -3 6 C-2.67 5.34 -2.34 4.68 -2 4 C0.13 8.39 0.13 8.39 -0.5 11.25 C-1.25 15.38 -0.06 18.99 1 23 C1.1 15.25 1.06 7.69 0 0 Z " fill="#5bc8ec" transform="translate(126,117)"/>
<path d="M0 0 C2.09 0.44 2.09 0.44 4 1 C4.28 4.71 4.46 8.3 4 12 C1.5 14.19 1.5 14.19 -1 15 C-5.88 12.25 -5.88 12.25 -7 10 C-2.89 1.93 -2.89 1.93 0 0 Z " fill="#5bc8ec" transform="translate(128,260)"/>
<path d="M0 0 C0.33 1.32 0.66 2.64 1 4 C-2 6 -2 6 -5 6 C-5 5.01 -5 4.02 -5 3 C-10.88 5.88 -10.88 5.88 -12 7 C-15.44 6.75 -15.44 6.75 -19 6 C-21 3 -21 3 -21 0 C-13.81 -1.08 -7.22 -0.79 0 0 Z " fill="#f6a8d2" transform="translate(174,190)"/>
<path d="M0 0 C1.02 6.48 -2.57 10.84 -6 16 C-7.32 15.67 -8.64 15.34 -10 15 C-10 15.66 -10 16.32 -10 17 C-11.32 16.34 -12.64 15.68 -14 15 C-14 13.35 -14 11.7 -14 10 C-13.01 9.67 -12.02 9.34 -11 9 C-9.97 8.04 -8.97 7.03 -8 6 C-6.8 4.93 -5.59 3.86 -4.38 2.81 C-4.07 2.55 -4.07 2.55 -2.52 1.21 C-1 0 -1 0 0 0 Z " fill="#5bc8ec" transform="translate(190,73)"/>
<path d="M0 0 C4.46 1.4 6.85 3.6 10 7 C10.62 7.52 11.24 8.03 11.88 8.56 C12.06 8.8 12.06 8.8 13 10 C12.69 12.19 12.69 12.19 12 14 C10.35 14.33 8.7 14.66 7 15 C7 15.66 7 16.32 7 17 C6.34 17 5.68 17 5 17 C2 11.25 2 11.25 2 9 C2.66 9 3.32 9 4 9 C3.34 8.07 2.68 7.14 2 6.19 C0 3 0 3 0 0 Z " fill="#5bc8ec" transform="translate(120,234)"/>
<path d="M0 0 C5.86 5.56 5.86 5.56 6.11 9.99 C6.11 10.73 6.1 11.47 6.1 12.23 C6.09 13.03 6.09 13.84 6.09 14.66 C6.08 15.5 6.07 16.33 6.06 17.19 C6.06 18.03 6.05 18.88 6.05 19.75 C6.04 21.83 6.02 23.92 6 26 C5.34 26.33 5.34 26.33 2 28 C2.02 27.31 2.05 26.62 2.07 25.91 C2.19 19.61 1.62 14.08 0 8 C-1.11 3.34 -1.11 3.34 0 0 Z " fill="#f6a8d2" transform="translate(206,93)"/>
<path d="M0 0 C2.06 0.44 2.06 0.44 4 1 C3.67 2.32 3.34 3.64 3 5 C3.61 4.9 3.61 4.9 6.69 4.38 C10.35 3.9 12.68 4.23 16 6 C15.67 6.99 15.34 7.98 15 9 C11.04 9 7.08 9 3 9 C3.33 10.65 3.66 12.3 4 14 C4.66 14 5.32 14 6 14 C6 14.66 6 15.32 6 16 C5.01 15.67 4.02 15.34 3 15 C2.67 13.67 2.33 12.33 2 11 C1.01 10.67 0.02 10.34 -1 10 C-1.03 8.52 -1.05 7.04 -1.06 5.56 C-1.07 4.74 -1.09 3.92 -1.1 3.07 C-1 1 -1 1 0 0 Z " fill="#5bc8ec" transform="translate(2,282)"/>
<path d="M0 0 C7.38 -0.37 7.38 -0.37 10.5 1.5 C10.99 2 11.49 2.49 12 3 C10.99 5.61 10.34 6.8 7.91 8.27 C7.11 8.59 6.32 8.92 5.5 9.25 C4.71 9.59 3.91 9.92 3.09 10.27 C1 11 1 11 -1 11 C-1.12 3.38 -1.12 3.38 0 0 Z " fill="#5bc8ec" transform="translate(1,91)"/>
<path d="M0 0 C2.75 2.75 3.77 6 5.12 9.56 C5.4 10.28 5.67 11 5.95 11.74 C7.86 17.04 8.61 21.34 8 27 C7.34 27 6.68 27 6 27 C2.96 23.04 2.45 19.46 1.94 14.56 C1.43 9.76 0.69 5.54 -1 1 C-0.67 0.67 -0.34 0.34 0 0 Z " fill="#f6a8d2" transform="translate(79,113)"/>
<path d="M0 0 C-0.81 1.94 -0.81 1.94 -2 4 C-2.99 4.33 -3.98 4.66 -5 5 C-5.56 6.81 -5.56 6.81 -6 9 C-6.64 10.35 -7.3 11.69 -8 13 C-9.98 13 -11.96 13 -14 13 C-13.7 11.66 -13.36 10.33 -13 9 C-12.91 8.59 -12.91 8.59 -12.44 6.5 C-9.89 2.07 -5.02 0 0 0 Z " fill="#5bc8ec" transform="translate(183,272)"/>
<path d="M0 0 C4 0 4 0 6.75 2.5 C7.12 2.91 7.12 2.91 9 5 C9 3.68 9 2.36 9 1 C11.44 1.75 11.44 1.75 14 3 C14.81 5.12 14.81 5.12 15 7 C14.54 6.97 14.54 6.97 12.19 6.81 C8.54 7.03 8.36 7.53 6 10 C4.68 9.67 3.36 9.34 2 9 C1.34 6.03 0.68 3.06 0 0 Z " fill="#5bc8ec" transform="translate(88,199)"/>
<path d="M0 0 C0.5 0.1 0.5 0.1 3.04 0.59 C3.42 0.67 3.42 0.67 5.38 1.06 C5.71 3.37 6.03 5.68 6.38 8.06 C5.38 8.39 4.4 8.72 3.38 9.06 C2.72 8.73 2.06 8.4 1.38 8.06 C1.38 7.07 1.38 6.08 1.38 5.06 C0.38 5.39 -0.6 5.72 -1.62 6.06 C-3.98 5.46 -6.31 4.8 -8.62 4.06 C-8.25 2.12 -8.25 2.12 -7.62 0.06 C-4.81 -1.34 -3.06 -0.6 0 0 Z " fill="#5bc8ec" transform="translate(141.625,32.9375)"/>
<path d="M0 0 C0.33 0 0.66 0 1 0 C1 2.31 1 4.62 1 7 C1.66 7 2.32 7 3 7 C3.33 4.69 3.66 2.38 4 0 C4.33 0 4.66 0 5 0 C5 2.64 5 5.28 5 8 C4.61 8.14 4.61 8.14 2.62 8.88 C0 10 0 10 -2 12 C-3.99 12.4 -5.99 12.74 -8 13 C-6.26 17.23 -4.46 21.13 -2 25 C-5.91 23.74 -7.24 21.35 -9.12 17.82 C-10.2 15.59 -11.15 13.33 -12 11 C-10.76 10.92 -9.52 10.84 -8.25 10.75 C-5.01 10.37 -4.12 10.1 -1.5 7.94 C-1.01 7.3 -0.51 6.66 0 6 C-2.64 6 -5.28 6 -8 6 C-8 5.67 -8 5.34 -8 5 C-5.36 5 -2.72 5 0 5 C0 3.35 0 1.7 0 0 Z " fill="#5bc8ec" transform="translate(43,67)"/>
<path d="M0 0 C0.95 0.35 1.9 0.7 2.88 1.06 C2.88 2.05 2.88 3.04 2.88 4.06 C0.5 5.12 0.5 5.12 -2.12 6.06 C-2.79 5.73 -3.45 5.4 -4.12 5.06 C-4.45 6.05 -4.79 7.04 -5.12 8.06 C-5.12 7.07 -5.12 6.08 -5.12 5.06 C-7.44 5.06 -9.75 5.06 -12.12 5.06 C-12.45 4.07 -12.79 3.08 -13.12 2.06 C-12.8 1.4 -12.46 0.74 -12.12 0.06 C-11.01 0.08 -9.9 0.1 -8.75 0.12 C-0.08 -0.02 -0.08 -0.02 0 0 Z " fill="#5bc8ec" transform="translate(34.125,285.9375)"/>
<path d="M0 0 C2.71 0.1 2.71 0.1 5.94 0.62 C6.47 0.7 6.47 0.7 9.15 1.1 C12.4 2.13 13.31 3.11 15 6 C13.68 6 12.36 6 11 6 C11.33 6.99 11.66 7.98 12 9 C10.35 9 8.7 9 7 9 C6.34 7.35 5.68 5.7 5 4 C4.34 4 3.68 4 3 4 C3 3.34 3 2.68 3 2 C2.34 2 1.68 2 1 2 C0.67 2.99 0.34 3.98 0 5 C-0.66 4.01 -1.32 3.02 -2 2 C-1.34 1.34 -0.68 0.68 0 0 Z " fill="#5bc8ec" transform="translate(210,38)"/>
</svg>
