<?xml version="1.0" encoding="UTF-8"?>
<!-- Generator: visioncortex VTracer 0.6.5 -->
<svg version="1.1" xmlns="http://www.w3.org/2000/svg" width="210" height="300">
<path d="M0 0 C69.3 0 138.6 0 210 0 C210 99 210 198 210 300 C140.7 300 71.4 300 0 300 C0 201 0 102 0 0 Z " fill="#141414" transform="translate(0,0)"/>
<path d="M0 0 C6.8 4.04 11.78 8.96 14.38 16.5 C14.98 20.7 15.26 24.91 15.55 29.15 C15.69 31.17 15.85 33.18 16.03 35.2 C16.57 42.95 16.36 49.27 13.38 56.5 C12.38 56.5 11.4 56.5 10.38 56.5 C10.21 55.51 10.21 55.51 9.38 50.5 C10.03 50.17 10.69 49.84 11.38 49.5 C11.74 42.98 11.74 42.98 9.88 40.56 C9.38 40.21 8.88 39.86 8.38 39.5 C8.87 39.11 9.37 38.72 9.88 38.31 C11.38 36.5 11.38 36.5 11.75 34 C11.38 31.5 11.38 31.5 10.38 29.75 C5.15 26.48 -1.89 27.46 -7.75 28.25 C-8.43 28.32 -9.1 28.4 -9.8 28.48 C-14.27 29.05 -17.72 30.28 -21.62 32.5 C-21.62 33.82 -21.62 35.14 -21.62 36.5 C-18.98 37.16 -16.34 37.82 -13.62 38.5 C-13.95 39.82 -14.28 41.14 -14.62 42.5 C-10.49 39.2 -7.04 36.33 -4.62 31.5 C-1.51 34.05 -0.82 36.74 0.38 40.5 C1.03 41.16 1.69 41.82 2.38 42.5 C2.38 43.49 2.38 44.48 2.38 45.5 C0.56 45.66 0.56 45.66 -8.62 46.5 C-8.62 45.84 -8.62 45.18 -8.62 44.5 C-10.12 45.81 -10.12 45.81 -11.62 47.5 C-11.62 48.49 -11.62 49.48 -11.62 50.5 C-11.05 50.25 -10.47 50 -9.88 49.75 C-9.13 49.67 -8.39 49.59 -7.62 49.5 C-5.38 51.44 -5.38 51.44 -3.62 53.5 C-6.5 56.37 -9.75 56.22 -13.62 56.5 C-19.24 56.5 -19.24 56.5 -21.62 55.5 C-23.44 53.19 -23.44 53.19 -24.62 50.5 C-24.31 48.19 -24.31 48.19 -23.62 46.5 C-22.68 46.56 -21.73 46.62 -20.75 46.69 C-20.23 46.66 -20.23 46.66 -17.62 46.5 C-16.97 45.51 -16.31 44.52 -15.62 43.5 C-16.07 43.55 -16.07 43.55 -18.31 43.81 C-21.62 43.5 -21.62 43.5 -24.31 41.31 C-25.08 40.38 -25.84 39.46 -26.62 38.5 C-27.22 37.78 -27.82 37.06 -28.44 36.31 C-30.56 31.28 -30.34 25.64 -28.62 20.5 C-30.28 20.17 -31.92 19.84 -33.62 19.5 C-34.77 16.07 -34.63 14.5 -33.5 11 C-26.98 -1.17 -12.28 -6.1 0 0 Z " fill="#f6a8d2" transform="translate(120.625,23.5)"/>
<path d="M0 0 C0.66 0 1.32 0 2 0 C2.23 0.95 2.45 1.9 2.69 2.88 C4 6 4 6 6.5 7.12 C7.33 7.41 8.15 7.7 9 8 C10.31 10.12 10.31 10.12 11 12 C13.49 10.8 15.68 9.55 18 8 C18.99 8 19.98 8 21 8 C21 9.65 21 11.3 21 13 C25.45 13.39 28.14 12.15 32 10 C33 12 33 12 32.69 14.94 C31 18 31 18 28.78 18.92 C27.03 19.38 25.28 19.8 23.51 20.16 C17.85 22.05 15.35 27.37 12.5 32.25 C12.11 32.92 11.71 33.58 11.3 34.27 C8.67 38.76 6.21 43.29 4 48 C3.34 48 2.68 48 2 48 C-0.13 39.29 -1.28 31.26 -1.08 22.3 C-0.95 16.35 -1.36 10.59 -1.98 4.66 C-1.98 3.78 -1.99 2.9 -2 2 C-1.34 1.34 -0.68 0.68 0 0 Z " fill="#f6a8d2" transform="translate(92,97)"/>
<path d="M0 0 C0.75 2.25 0.75 2.25 1 5 C-1.48 8.42 -4.67 9.9 -8.34 11.86 C-10 13 -10 13 -12 16.19 C-12.66 17.12 -13.32 18.04 -14 19 C-14.59 19.08 -14.59 19.08 -17.56 19.5 C-18.13 19.58 -18.13 19.58 -21 20 C-22.94 23.06 -22.94 23.06 -24 26 C-22.68 26.33 -21.36 26.66 -20 27 C-21.76 29.18 -22.69 29.94 -25.48 30.51 C-26.37 30.57 -27.27 30.63 -28.19 30.69 C-29.09 30.75 -29.99 30.82 -30.92 30.89 C-31.61 30.92 -32.29 30.96 -33 31 C-35.61 23.67 -35.61 23.67 -34.27 19.98 C-31.28 15.53 -27.69 13.43 -23 11 C-22.67 10.34 -22.34 9.68 -22 9 C-20.68 9 -19.36 9 -18 9 C-18 8.34 -18 7.68 -18 7 C-16.35 7 -14.7 7 -13 7 C-13 6.34 -13 5.68 -13 5 C-4.29 0 -4.29 0 0 0 Z " fill="#5bc8ec" transform="translate(183,118)"/>
<path d="M0 0 C3.72 2.32 6.61 4.29 9 8 C8.34 9.32 7.68 10.64 7 12 C2.87 11.39 -0.33 9.96 -4 8 C-3.98 8.97 -3.96 9.94 -3.94 10.94 C-4 14 -4 14 -5 15 C-7 15 -9 15 -10.99 14.94 C-13 15 -13 15 -16 16 C-16.99 15.67 -17.98 15.34 -19 15 C-18.48 15.41 -17.97 15.82 -17.44 16.25 C-17.2 16.54 -17.2 16.54 -16 18 C-16.31 20.19 -16.31 20.19 -17 22 C-15.68 22.99 -14.36 23.98 -13 25 C-15.76 26.38 -17.95 26.19 -21 26 C-23.39 23.61 -23.35 22.23 -24 19 C-24.66 18.34 -25.32 17.68 -26 17 C-26 11.57 -24.43 8.2 -20.82 4.32 C-17.49 1.9 -15 2.42 -11 3 C-8.5 4 -8.5 4 -7 5 C-10.02 6.93 -12.55 8.14 -16 9 C-16.33 9.66 -16.66 10.32 -17 11 C-10.38 12.12 -10.38 12.12 -7 11 C-6.25 9.27 -5.51 7.54 -4.83 5.79 C-3.69 3.33 -2.03 1.75 0 0 Z " fill="#f6a8d2" transform="translate(105,199)"/>
<path d="M0 0 C1.32 0.33 2.64 0.66 4 1 C4.66 5.95 5.32 10.9 6 16 C7.32 15.67 8.64 15.34 10 15 C10.54 16.56 11.05 18.12 11.56 19.69 C11.85 20.56 12.14 21.43 12.44 22.32 C13.05 25.25 12.78 27.14 12 30 C9.62 30.12 9.62 30.12 7 30 C4.43 27.43 4.46 25.52 4 22 C3.01 22.66 2.02 23.32 1 24 C0.01 24 -0.98 24 -2 24 C-4.98 9.77 -4.98 9.77 -4 4 C-2.25 1.38 -2.25 1.38 0 0 Z " fill="#f6a8d2" transform="translate(62,220)"/>
<path d="M0 0 C2.94 0.75 2.94 0.75 6 2 C6.84 3.85 6.84 3.85 7 6 C6.07 7.79 6.07 7.79 4.56 9.62 C4.29 9.97 4.29 9.97 2.89 11.71 C2.27 12.47 1.64 13.22 1 14 C-0.42 15.75 -1.84 17.5 -3.25 19.25 C-3.92 20.06 -4.58 20.87 -5.27 21.7 C-6.81 23.75 -7.95 25.67 -9 28 C-9.99 28 -10.98 28 -12 28 C-11.91 26.54 -11.8 25.08 -11.69 23.62 C-11.63 22.81 -11.57 22 -11.51 21.16 C-11 19 -11 19 -8 17 C-8.1 15.82 -8.21 14.65 -8.31 13.44 C-8.48 10.25 -8.1 9.14 -6.23 6.47 C-4.22 4.24 -2.16 2.09 0 0 Z " fill="#5bc8ec" transform="translate(57,253)"/>
<path d="M0 0 C2.52 2.94 3.83 5.2 4.62 9 C3.7 13.43 1.37 15.05 -2 18 C-5.9 16.7 -7.92 14.11 -10.14 10.8 C-11 9 -11 9 -10.62 6.31 C-7.57 1.96 -5.41 0 0 0 Z " fill="#f6a8d2" transform="translate(28,237)"/>
<path d="M0 0 C-0.68 3.6 -2.23 6.37 -4 9.56 C-6.7 14.79 -7.67 18.96 -7.7 24.82 C-7.8 25.54 -7.9 26.26 -8 27 C-11 29 -11 29 -13.69 28.62 C-14.07 28.52 -14.07 28.52 -16 28 C-15.64 17.34 -11.26 8.44 -3.52 1.11 C-2 0 -2 0 0 0 Z " fill="#5bc8ec" transform="translate(85,181)"/>
<path d="M0 0 C2.25 0.25 2.25 0.25 4 1 C4.33 3.64 4.66 6.28 5 9 C1 9 1 9 -1 8 C-0.34 9.32 0.32 10.64 1 12 C0 13 0 13 -2.56 13.06 C-3.37 13.04 -4.17 13.02 -5 13 C-9.06 6.6 -9.06 6.6 -8.75 3.56 C-8.5 3.05 -8.26 2.53 -8 2 C-6.68 2.66 -5.36 3.32 -4 4 C-3.42 3.32 -2.84 2.64 -2.25 1.94 C-1.51 1.3 -0.77 0.66 0 0 Z " fill="#f6a8d2" transform="translate(45,237)"/>
<path d="M0 0 C0.54 1.56 1.05 3.12 1.56 4.69 C1.85 5.56 2.14 6.43 2.44 7.32 C3.05 10.25 2.78 12.14 2 15 C-0.38 15.12 -0.38 15.12 -3 15 C-5.87 12.13 -5.95 8.9 -6 5 C-5.19 2.56 -5.19 2.56 -4 1 C-2 0 -2 0 0 0 Z " fill="#5bc8ec" transform="translate(72,235)"/>
</svg>
