<?xml version="1.0" encoding="UTF-8"?>
<!-- Generator: visioncortex VTracer 0.6.5 -->
<svg version="1.1" xmlns="http://www.w3.org/2000/svg" width="300" height="198">
<path d="M0 0 C99 0 198 0 300 0 C300 65.34 300 130.68 300 198 C201 198 102 198 0 198 C0 132.66 0 67.32 0 0 Z " fill="#141414" transform="translate(0,0)"/>
<path d="M0 0 C0 4 0 4 -1 7 C0.65 7.66 2.3 8.32 4 9 C4 44.64 4 80.28 4 117 C-74.87 117 -153.74 117 -235 117 C-235 103.98 -233.93 100.06 -226 91 C-224.99 89.67 -223.99 88.34 -223 87 C-221.14 84.48 -219.23 82.06 -217.19 79.69 C-215 77 -215 77 -214 74 C-213.4 73.44 -212.8 72.89 -212.19 72.31 C-210 70 -210 70 -208.44 66.56 C-206.13 61.63 -202.63 57.86 -199.08 53.8 C-196.44 50.77 -194.07 47.78 -192 44.31 C-189.82 40.7 -188.44 39.39 -184.37 38.29 C-182.41 37.85 -180.46 37.41 -178.5 36.98 C-176 36 -176 36 -174.82 34.01 C-174.55 33.35 -174.28 32.68 -174 32 C-169.71 29 -169.71 29 -167 29 C-166.84 28.5 -166.84 28.5 -166 26 C-165.68 25.7 -165.68 25.7 -164.06 24.19 C-161.63 21.61 -160.92 19.38 -160 16 C-159.01 16 -158.02 16 -157 16 C-156.44 17.05 -155.89 18.1 -155.31 19.19 C-153.28 22.72 -151.03 25.23 -148 28 C-147.2 28.74 -146.39 29.48 -145.56 30.24 C-135.94 39.01 -135.94 39.01 -132.74 38.98 C-131.94 38.86 -131.14 38.74 -130.31 38.62 C-129.5 38.51 -128.7 38.4 -127.86 38.29 C-127.25 38.19 -126.63 38.1 -126 38 C-126.33 39.32 -126.66 40.64 -127 42 C-127.66 42 -128.32 42 -129 42 C-129 42.66 -129 43.32 -129 44 C-127.93 43.48 -126.86 42.97 -125.75 42.44 C-122.75 40.99 -121.17 40.94 -118 42 C-115.56 51.94 -113.7 61.92 -112 72 C-110.53 71.32 -109.07 70.6 -107.62 69.88 C-107.22 69.68 -107.22 69.68 -105.16 68.68 C-102.25 66.42 -101.92 64.55 -101 61 C-100.9 57.87 -100.9 57.87 -101.09 54.58 C-101.15 53.39 -101.21 52.2 -101.28 50.97 C-101.35 49.74 -101.42 48.52 -101.5 47.25 C-101.64 44.8 -101.78 42.34 -101.91 39.89 C-101.97 38.81 -102.04 37.73 -102.1 36.61 C-102 34 -102 34 -100 32 C-100.38 28.37 -100.38 28.37 -101 25 C-93.72 24.65 -86.77 24.7 -81.02 29.73 C-77.33 33.8 -74.53 38.14 -72 43 C-70.12 42.69 -70.12 42.69 -68 42 C-67.34 41.01 -66.68 40.02 -66 39 C-64.35 37.97 -62.68 36.97 -61 36 C-59.17 34.68 -57.35 33.34 -55.55 31.99 C-54 31 -54 31 -52 31 C-51.67 30.01 -51.34 29.02 -51 28 C-45.63 24 -45.63 24 -43 24 C-42.67 23.01 -42.34 22.02 -42 21 C-41.63 20.86 -41.63 20.86 -39.75 20.12 C-37 19 -37 19 -34.74 16.67 C-31.8 13.8 -28.98 12.08 -25.38 10.12 C-20.76 7.6 -16.39 4.94 -12.06 1.94 C-7.52 -1.04 -5.16 -1.72 0 0 Z " fill="#f6a8d2" transform="translate(296,81)"/>
<path d="M0 0 C2.64 0 5.28 0 8 0 C8 34.32 8 68.64 8 104 C-63.28 104 -134.56 104 -208 104 C-207.67 102.35 -207.34 100.7 -207 99 C-206.01 99 -205.02 99 -204 99 C-203.34 97.02 -202.68 95.04 -202 93 C-201.08 93.01 -200.16 93.02 -199.22 93.04 C-183.45 93.15 -183.45 93.15 -177 91 C-177 91.99 -177 92.98 -177 94 C-176.26 94.14 -175.51 94.29 -174.75 94.44 C-173.22 94.75 -171.69 95.08 -170.19 95.5 C-160.54 97.7 -160.54 97.7 -156 96 C-156.33 94.35 -156.66 92.7 -157 91 C-153.95 90.03 -152.11 90.01 -149.06 90.94 C-145.92 91.81 -143.28 92.09 -140 92 C-138.33 92.32 -136.66 92.65 -135 93 C-134.01 93 -133.02 93 -132 93 C-131.67 92.5 -131.67 92.5 -130 90 C-129.34 90.33 -128.68 90.66 -128 91 C-128 90.34 -128 89.68 -128 89 C-127.34 88.34 -126.68 87.68 -126 87 C-125.67 86.34 -125.34 85.68 -125 85 C-124.34 85.33 -123.68 85.66 -123 86 C-122.67 85.34 -122.34 84.68 -122 84 C-121.01 84 -120.02 84 -119 84 C-118.84 83.5 -118.84 83.5 -118 81 C-115.44 79.31 -115.44 79.31 -113 78 C-113.33 76.02 -113.66 74.04 -114 72 C-113.5 72.33 -113.5 72.33 -111 74 C-111 74.66 -111 75.32 -111 76 C-110.34 75.34 -109.68 74.68 -109 74 C-109.38 71.38 -109.38 71.38 -110 69 C-109.5 69.33 -109.5 69.33 -107 71 C-107 71.66 -107 72.32 -107 73 C-105.02 71.68 -103.04 70.36 -101 69 C-101.16 67.84 -101.16 67.84 -102 62 C-100.02 63.32 -98.04 64.64 -96 66 C-96.33 64.68 -96.33 64.68 -98 58 C-94.88 58.49 -92 59 -89 60 C-86.31 59.06 -86.31 59.06 -84 58 C-84.04 57.05 -84.08 56.1 -84.12 55.12 C-84 52 -84 52 -82 50 C-78.38 49.88 -78.38 49.88 -75 50 C-75.99 47.03 -76.98 44.06 -78 41 C-73.2 42.2 -73.2 42.2 -71 45 C-70.3 46.65 -69.64 48.32 -69 50 C-68.03 51.68 -67.03 53.35 -66 55 C-65.56 55.76 -65.11 56.52 -64.66 57.3 C-62.87 60.21 -60.94 62.98 -58.94 65.75 C-58.59 66.23 -58.59 66.23 -56.84 68.67 C-55 71 -55 71 -53 72 C-50.88 71.56 -50.88 71.56 -49 71 C-48.55 71.8 -48.09 72.61 -47.62 73.44 C-46 76 -46 76 -44 77 C-44.33 75.84 -44.33 75.84 -46 70 C-46.66 70 -47.32 70 -48 70 C-48.29 68.8 -48.58 67.61 -48.88 66.38 C-50.9 60.15 -54.84 55.31 -58.72 50.14 C-60.46 47.75 -61.7 45.61 -63 43 C-63.66 42.67 -64.32 42.34 -65 42 C-65 42.66 -65 43.32 -65 44 C-66.32 44.33 -67.64 44.66 -69 45 C-69.33 43.68 -69.66 42.36 -70 41 C-68.84 40.84 -68.84 40.84 -63 40 C-63.33 38.02 -63.66 36.04 -64 34 C-60.99 33.07 -60.13 32.96 -57 34 C-56.34 33.01 -55.68 32.02 -55 31 C-54.18 30.73 -53.35 30.46 -52.5 30.19 C-50 29 -50 29 -48.88 25.94 C-48.59 24.97 -48.3 24 -48 23 C-45 22 -45 22 -42 23 C-41.88 22.68 -41.88 22.68 -41.25 21.06 C-40 19 -40 19 -38.2 18.5 C-37.47 18.34 -36.75 18.17 -36 18 C-34.53 17.34 -33.07 16.65 -31.62 15.94 C-27.92 14.24 -25.13 13.58 -21 14 C-20.67 13.01 -20.34 12.02 -20 11 C-19.63 10.93 -19.63 10.93 -17.75 10.56 C-15.48 10.1 -13.24 9.58 -11 9 C-11 8.01 -11 7.02 -11 6 C-8.98 5.51 -6.96 5.02 -4.95 4.54 C-3 4 -3 4 -1 3 C-0.67 2.01 -0.34 1.02 0 0 Z " fill="#141414" transform="translate(292,94)"/>
<path d="M0 0 C0 4 0 4 -1 7 C0.65 7.66 2.3 8.32 4 9 C4 10.32 4 11.64 4 13 C-1.75 14.12 -1.75 14.12 -4 13 C-4.08 13.62 -4.17 14.24 -4.25 14.88 C-5 17 -5 17 -6.69 18.25 C-9.54 19.18 -12.02 19.14 -15 19 C-15 19.99 -15 20.98 -15 22 C-21.75 25 -21.75 25 -24 25 C-24.43 25.47 -24.87 25.95 -25.31 26.44 C-27.5 28.47 -29.06 28.48 -32 29 C-34.03 29.71 -36.03 30.49 -38.04 31.28 C-40 32 -40 32 -42.17 32.46 C-44 33 -44 33 -45.25 35.06 C-45.37 35.38 -45.37 35.38 -46 37 C-46.31 36.91 -46.31 36.91 -47.88 36.44 C-50 36 -50 36 -52 37 C-52.27 37.97 -52.54 38.94 -52.81 39.94 C-54 43 -54 43 -56.5 44.19 C-57.32 44.46 -58.15 44.72 -59 45 C-59.66 45.99 -60.32 46.98 -61 48 C-63.31 47.67 -65.62 47.34 -68 47 C-67.84 47.99 -67.84 47.99 -67 53 C-68.98 53.66 -70.96 54.32 -73 55 C-73 55.99 -73 56.98 -73 58 C-72.34 57.84 -72.34 57.84 -69 57 C-69 56.34 -69 55.68 -69 55 C-65.3 56.23 -65.08 57.17 -63.25 60.5 C-61.15 64.19 -58.93 67.39 -56.19 70.62 C-52.82 74.79 -52.1 77.69 -52 83 C-51.34 83 -50.68 83 -50 83 C-48.54 85.65 -48 86.89 -48 90 C-51.4 88.87 -52.05 87.87 -54 85 C-54.66 85.16 -54.66 85.16 -58 86 C-64.09 79.04 -69.55 72.63 -73 64 C-73.66 63.34 -74.32 62.68 -75 62 C-75.4 60.01 -75.74 58.01 -76 56 C-77.98 55.34 -79.96 54.68 -82 54 C-81.5 54.93 -81.01 55.86 -80.5 56.81 C-79 60 -79 60 -79 63 C-80.16 63.16 -80.16 63.16 -86 64 C-86.6 66.76 -87 69.16 -87 72 C-94.63 74.54 -94.63 74.54 -99 72.62 C-99.99 72.09 -100.98 71.55 -102 71 C-101.84 71.38 -101.84 71.38 -101 73.31 C-100 76 -100 76 -100 79 C-100.6 78.67 -101.2 78.34 -101.81 78 C-104 77 -104 77 -107 77 C-107.99 75.02 -108.98 73.04 -110 71 C-108.24 70.15 -106.48 69.31 -104.73 68.46 C-102.2 66.32 -101.85 64.17 -101 61 C-100.9 57.87 -100.9 57.87 -101.09 54.58 C-101.15 53.39 -101.21 52.2 -101.28 50.97 C-101.35 49.74 -101.42 48.52 -101.5 47.25 C-101.64 44.8 -101.78 42.34 -101.91 39.89 C-101.97 38.81 -102.04 37.73 -102.1 36.61 C-102 34 -102 34 -100 32 C-100.38 28.37 -100.38 28.37 -101 25 C-93.72 24.65 -86.77 24.7 -81.02 29.73 C-77.33 33.8 -74.53 38.14 -72 43 C-70.12 42.69 -70.12 42.69 -68 42 C-67.34 41.01 -66.68 40.02 -66 39 C-64.35 37.97 -62.68 36.97 -61 36 C-59.17 34.68 -57.35 33.34 -55.55 31.99 C-54 31 -54 31 -52 31 C-51.84 30.5 -51.84 30.5 -51 28 C-45.63 24 -45.63 24 -43 24 C-42.84 23.5 -42.84 23.5 -42 21 C-41.26 20.71 -40.51 20.42 -39.75 20.12 C-37 19 -37 19 -34.74 16.67 C-31.8 13.8 -28.98 12.08 -25.38 10.12 C-20.76 7.6 -16.39 4.94 -12.06 1.94 C-7.52 -1.04 -5.16 -1.72 0 0 Z " fill="#f6a8d2" transform="translate(296,81)"/>
<path d="M0 0 C1.88 0.62 1.88 0.62 4 2 C5.25 5.13 5.25 5.13 6 8 C5.68 8.27 5.68 8.27 4.06 9.62 C1.61 12.44 1.33 14.34 1 18 C7.57 18.13 7.57 18.13 10.12 17.38 C12.86 16.83 14.45 17.9 17 19 C18.37 19.23 19.75 19.46 21.12 19.69 C23.65 20.26 24.67 20.53 26.18 22.68 C27 24.63 27 24.63 28 28 C28.4 27.53 28.8 27.06 29.21 26.57 C31.36 24.68 32.89 24.34 35.69 23.81 C36.5 23.65 37.3 23.5 38.14 23.33 C38.44 23.28 38.44 23.28 40 23 C42.18 27.65 42.86 32.35 43.62 37.38 C43.76 38.2 43.89 39.03 44.03 39.88 C44.77 44.65 45.14 49.17 45 54 C42.53 53.04 40.15 52.08 37.81 50.81 C37.21 50.54 36.62 50.28 36 50 C35.67 50.16 35.67 50.16 34 51 C33.26 50.2 32.51 49.39 31.75 48.56 C27.58 44.67 23.75 44.73 18.24 44.76 C15.12 45.09 12.77 46.58 10 48 C6.34 47.84 3.37 46.78 0 45.44 C-4.62 43.63 -8.25 43.42 -13 45 C-13.35 43.87 -13.7 42.74 -14.06 41.57 C-14.52 40.09 -14.98 38.61 -15.44 37.12 C-15.67 36.38 -15.9 35.63 -16.13 34.86 C-17.89 29.23 -17.89 29.23 -19 27 C-19 29.97 -19 32.94 -19 36 C-19.66 36 -20.32 36 -21 36 C-22.62 33.5 -22.62 33.5 -24 31 C-23.34 30.01 -22.68 29.02 -22 28 C-22.99 28 -23.98 28 -25 28 C-25.19 29.11 -25.37 30.23 -25.56 31.38 C-26.04 32.57 -26.51 33.77 -27 35 C-30.63 36.44 -30.63 36.44 -34 37 C-34.33 38.98 -34.66 40.96 -35 43 C-36.65 42.67 -38.3 42.34 -40 42 C-39.34 43.98 -38.68 45.96 -38 48 C-38.5 48.16 -38.5 48.16 -41 49 C-40.48 51.76 -39.89 54.33 -39 57 C-43.72 57.77 -48.22 58.1 -53 58 C-52.42 54.62 -51.37 53.37 -49 51 C-47.81 48.31 -47.81 48.31 -47 46 C-46.34 46 -45.68 46 -45 46 C-44.97 45.33 -44.93 44.67 -44.89 43.98 C-43.56 39.55 -40.73 36.72 -37.69 33.31 C-37.11 32.64 -36.52 31.96 -35.92 31.26 C-31.52 26.25 -31.52 26.25 -28.85 24.96 C-28.54 24.8 -28.54 24.8 -27 24 C-26.25 21.38 -26.25 21.38 -26 19 C-25.45 18.85 -25.45 18.85 -22.69 18.06 C-18.07 16.73 -15.87 15.93 -12.6 12.46 C-10.01 10.1 -7 8.4 -3.99 6.62 C-1.58 4.66 -0.92 2.93 0 0 Z " fill="#fbfaf7" transform="translate(136,102)"/>
<path d="M0 0 C0 4 0 4 -1 7 C0.65 7.66 2.3 8.32 4 9 C4 10.32 4 11.64 4 13 C-1.75 14.12 -1.75 14.12 -4 13 C-4.08 13.62 -4.17 14.24 -4.25 14.88 C-5 17 -5 17 -6.69 18.25 C-9.54 19.18 -12.02 19.14 -15 19 C-15 19.99 -15 20.98 -15 22 C-21.75 25 -21.75 25 -24 25 C-24.43 25.47 -24.87 25.95 -25.31 26.44 C-27.5 28.47 -29.06 28.48 -32 29 C-34.03 29.71 -36.03 30.49 -38.04 31.28 C-40 32 -40 32 -42.17 32.46 C-44 33 -44 33 -45.25 35.06 C-45.5 35.7 -45.75 36.34 -46 37 C-46.62 36.81 -47.24 36.63 -47.88 36.44 C-50 36 -50 36 -52 37 C-52.27 37.97 -52.54 38.94 -52.81 39.94 C-54 43 -54 43 -56.5 44.19 C-57.32 44.46 -58.15 44.72 -59 45 C-59.66 45.99 -60.32 46.98 -61 48 C-63.31 47.67 -65.62 47.34 -68 47 C-68.33 47.66 -68.66 48.32 -69 49 C-69.66 47.35 -70.32 45.7 -71 44 C-67.86 40.68 -64.95 38.26 -61 36 C-59.17 34.68 -57.35 33.34 -55.55 31.99 C-54 31 -54 31 -52 31 C-51.67 30.01 -51.34 29.02 -51 28 C-45.63 24 -45.63 24 -43 24 C-42.67 23.01 -42.34 22.02 -42 21 C-41.26 20.71 -40.51 20.42 -39.75 20.12 C-37 19 -37 19 -34.74 16.67 C-31.8 13.8 -28.98 12.08 -25.38 10.12 C-20.76 7.6 -16.39 4.94 -12.06 1.94 C-7.52 -1.04 -5.16 -1.72 0 0 Z " fill="#f6a8d2" transform="translate(296,81)"/>
<path d="M0 0 C0.99 0.33 1.98 0.66 3 1 C2.12 5.75 2.12 5.75 1 8 C1.99 7.34 2.98 6.68 4 6 C4 5.34 4 4.68 4 4 C5.65 3.67 7.3 3.34 9 3 C9.93 6.01 10.04 6.87 9 10 C9.82 10.16 9.82 10.16 14 11 C14 11.66 14 12.32 14 13 C8.59 17 8.59 17 6 17 C5.67 18.32 5.34 19.64 5 21 C5.7 21.1 6.4 21.21 7.12 21.31 C10.39 22.09 13.05 23.42 16 25 C14.12 27.09 12.44 28.34 10 29.81 C6.61 32.29 5.81 34.3 4 38 C1.31 39.88 1.31 39.88 -1 41 C-1.5 39.84 -1.5 39.84 -4 34 C-4.74 34.08 -5.49 34.16 -6.25 34.25 C-9 34 -9 34 -11.38 32.25 C-13 30 -13 30 -12.75 27.75 C-12.5 27.17 -12.25 26.59 -12 26 C-10.68 26.33 -9.36 26.66 -8 27 C-7.67 24.69 -7.34 22.38 -7 20 C-9.31 19.67 -11.62 19.34 -14 19 C-14.5 17.06 -15 15.11 -15.47 13.16 C-15.91 11.35 -16.39 9.55 -16.88 7.75 C-17 5 -17 5 -15.31 2.56 C-13 1 -13 1 -10.88 1.06 C-9 2 -9 2 -7 5 C-3.35 3.75 -2.22 3.33 0 0 Z " fill="#f6a8d2" transform="translate(139,52)"/>
<path d="M0 0 C4.75 0.75 4.75 0.75 7 3 C6.62 5.62 6.62 5.62 6 8 C6.47 8.29 6.47 8.29 8.88 9.75 C12.88 13.07 13.16 16.95 13.75 21.92 C13.84 22.94 13.92 23.95 14 25 C14.07 25.88 14.14 26.77 14.21 27.68 C14.45 33.43 14.45 33.43 12.67 35.68 C9.06 38.53 4.87 38.46 0.46 38.41 C-2.3 37.95 -3.31 37.4 -5.19 35.38 C-7 32 -7 32 -7 28.88 C-6 26 -6 26 -4.44 24.13 C-2.66 21.49 -2.77 20.14 -3 17 C-3.31 12.73 -2.58 11.34 0 8 C0.29 5.86 0.29 5.86 0.19 3.75 C0.16 3.13 0.16 3.13 0 0 Z " fill="#f6a8d2" transform="translate(199,156)"/>
<path d="M0 0 C0.99 0 1.98 0 3 0 C3.56 1.05 4.11 2.1 4.69 3.19 C6.72 6.72 8.97 9.23 12 12 C12.8 12.74 13.61 13.48 14.44 14.24 C24.06 23.01 24.06 23.01 27.26 22.98 C27.66 22.92 27.66 22.92 29.69 22.62 C30.5 22.51 31.3 22.4 32.14 22.29 C32.75 22.19 33.37 22.1 34 22 C33.67 23.32 33.34 24.64 33 26 C32.34 26 31.68 26 31 26 C31 26.66 31 27.32 31 28 C32.07 27.48 33.14 26.97 34.25 26.44 C37.25 24.99 38.83 24.94 42 26 C43.69 32.98 45.3 39.84 46 47 C45.34 47 44.68 47 44 47 C42.67 41 41.33 35 40 29 C38.56 29.26 37.12 29.53 35.69 29.81 C34.89 29.96 34.09 30.11 33.26 30.27 C30.77 31.08 29.68 32.02 28 34 C27.77 32.93 27.55 31.85 27.31 30.75 C26.04 27.69 25.1 27.05 22.05 25.61 C12.43 22.55 12.43 22.55 8 24 C5.67 24.04 3.33 24.04 1 24 C-0.28 20.97 0.01 19.96 1.25 16.81 C3 14 3 14 6 13 C5.69 12.43 5.69 12.43 4.12 9.56 C3.78 8.92 3.43 8.29 3.07 7.63 C2 6 2 6 0 5 C-0.03 5.73 -0.06 6.46 -0.1 7.21 C-1.37 11.15 -4.08 12.54 -7.44 14.62 C-13.78 18.66 -13.78 18.66 -16 22 C-19.16 24.03 -22.31 24.5 -26 25 C-26.03 25.38 -26.03 25.38 -26.19 27.31 C-27 30 -27 30 -29.2 31.27 C-32.76 33.47 -35.04 36.17 -37.69 39.38 C-38.17 39.94 -38.66 40.5 -39.16 41.09 C-41.84 44.28 -43.54 47.05 -45 51 C-45.33 51.16 -45.33 51.16 -47 52 C-47.23 52.58 -47.23 52.58 -48.38 55.5 C-50 59 -50 59 -52.19 59.94 C-52.79 59.96 -53.38 59.98 -54 60 C-54 59.34 -54 58.68 -54 58 C-53.42 57.46 -52.84 56.93 -52.25 56.38 C-50 54 -50 54 -48.44 50.56 C-46.13 45.63 -42.63 41.86 -39.08 37.8 C-36.44 34.77 -34.07 31.78 -32 28.31 C-29.82 24.7 -28.44 23.39 -24.37 22.29 C-22.41 21.85 -20.46 21.41 -18.5 20.98 C-16 20 -16 20 -14.82 18.01 C-14.55 17.35 -14.28 16.68 -14 16 C-9.71 13 -9.71 13 -7 13 C-6.67 12.01 -6.34 11.02 -6 10 C-5.68 9.7 -5.68 9.7 -4.06 8.19 C-1.63 5.61 -0.92 3.38 0 0 Z " fill="#f6a8d2" transform="translate(136,97)"/>
<path d="M0 0 C2.38 -0.12 2.38 -0.12 5 0 C7 2 7 2 7 5 C8.16 4.84 8.16 4.84 14 4 C13.48 4.52 12.97 5.03 12.44 5.56 C10.43 8.97 11.41 11.15 12 15 C11.39 17.35 10.73 19.69 10 22 C6.31 22.5 2.61 23 -1.08 23.48 C-3.33 23.78 -5.58 24.1 -7.82 24.46 C-11.45 25.01 -13.65 25.15 -17.06 23.69 C-17.7 23.13 -18.34 22.57 -19 22 C-19 21.34 -19 20.68 -19 20 C-18.34 19.67 -17.68 19.34 -17 19 C-17.33 17.68 -17.66 16.36 -18 15 C-17.52 14.94 -17.52 14.94 -15.06 14.62 C-14.05 14.42 -13.04 14.21 -12 14 C-11.67 13.34 -11.34 12.68 -11 12 C-11.66 12 -12.32 12 -13 12 C-12.67 11.01 -12.34 10.02 -12 9 C-11.24 8.94 -10.47 8.88 -9.69 8.81 C-6.15 7.74 -5.76 6.12 -4 3 C-3.01 3 -2.02 3 -1 3 C-0.67 2.01 -0.34 1.02 0 0 Z " fill="#141414" transform="translate(113,153)"/>
<path d="M0 0 C1.86 2.73 2 4.19 1.94 7.56 C1 11 1 11 -1.19 12.94 C-4.32 14.12 -6.68 14.23 -10 14 C-10 14.99 -10 15.98 -10 17 C-11.98 17.66 -13.96 18.32 -16 19 C-16.33 18.34 -16.66 17.68 -17 17 C-17.99 16.67 -18.98 16.34 -20 16 C-20 15.34 -20 14.68 -20 14 C-21.65 14.33 -23.3 14.66 -25 15 C-25 13.68 -25 12.36 -25 11 C-18.38 8 -18.38 8 -15 8 C-14.67 6.68 -14.34 5.36 -14 4 C-13.2 3.88 -12.39 3.75 -11.56 3.62 C-10.72 3.42 -9.87 3.21 -9 3 C-8.67 2.34 -8.34 1.68 -8 1 C-5.07 0.02 -3.04 -0.08 0 0 Z " fill="#5bc8ec" transform="translate(291,86)"/>
<path d="M0 0 C1.07 0.27 2.14 0.54 3.25 0.81 C2.92 1.31 2.92 1.31 1.25 3.81 C0.59 3.81 -0.07 3.81 -0.75 3.81 C-0.42 4.47 -0.09 5.13 0.25 5.81 C3.09 6.19 3.09 6.19 6.62 6.38 C12.97 6.72 12.97 6.72 16.25 7.81 C14.5 11.78 12.43 15.82 9.25 18.81 C6.44 19.71 4.24 19.76 1.25 19.81 C0.98 19.17 0.71 18.53 0.44 17.88 C-0.75 15.81 -0.75 15.81 -3.75 14.81 C-3.09 14.81 -2.43 14.81 -1.75 14.81 C-1.42 13.16 -1.09 11.51 -0.75 9.81 C-1.2 10.31 -1.66 10.8 -2.12 11.31 C-3.75 12.81 -3.75 12.81 -5.75 12.81 C-5.75 12.15 -5.75 11.49 -5.75 10.81 C-6.41 10.81 -7.07 10.81 -7.75 10.81 C-8.09 7.14 -7.94 5.17 -6.19 1.88 C-3.75 -0.19 -3.75 -0.19 0 0 Z " fill="#fbfaf7" transform="translate(78.75,169.1875)"/>
<path d="M0 0 C0 4 0 4 -1 7 C-0.18 7.33 -0.18 7.33 4 9 C4 10.32 4 11.64 4 13 C2.02 13.33 0.04 13.66 -2 14 C-2.99 11.03 -3.98 8.06 -5 5 C-10.46 5.35 -10.46 5.35 -13 6 C-14.5 8.06 -14.5 8.06 -15 10 C-16.32 10 -17.64 10 -19 10 C-19.33 10.99 -19.66 11.98 -20 13 C-23.7 15.22 -25.63 16 -30 16 C-30.33 16.83 -30.33 16.83 -32 21 C-33.65 21 -35.3 21 -37 21 C-33.36 14.29 -28.16 11.48 -21.64 8 C-18.28 6.2 -15.19 4.12 -12.06 1.94 C-7.52 -1.04 -5.16 -1.72 0 0 Z " fill="#f6a8d2" transform="translate(296,81)"/>
<path d="M0 0 C0.96 -0.03 1.92 -0.05 2.91 -0.08 C5.86 0.3 6.7 0.94 8.5 3.25 C2.52 7.12 -2.63 8.54 -9.75 8.56 C-10.36 8.57 -10.36 8.57 -13.45 8.61 C-13.96 8.55 -13.96 8.55 -16.5 8.25 C-18.5 5.25 -18.5 5.25 -18.5 1.25 C-17.81 1.26 -17.13 1.27 -16.42 1.29 C-15.97 1.29 -15.97 1.29 -13.69 1.31 C-13.24 1.32 -13.24 1.32 -10.98 1.35 C-7.22 1.2 -3.86 0.06 0 0 Z " fill="#f6a8d2" transform="translate(142.5,129.75)"/>
<path d="M0 0 C1.32 0.66 2.64 1.32 4 2 C4 2.99 4 3.98 4 5 C3.67 5.17 3.67 5.17 2 6 C1.73 6.97 1.46 7.94 1.19 8.94 C0 12 0 12 -2.5 13.19 C-3.32 13.46 -4.15 13.72 -5 14 C-5.33 14.5 -5.33 14.5 -7 17 C-9.31 16.67 -11.62 16.34 -14 16 C-14.33 16.66 -14.66 17.32 -15 18 C-15.66 16.35 -16.32 14.7 -17 13 C-13.86 9.68 -10.95 7.26 -7 5 C-4.64 3.37 -2.32 1.69 0 0 Z " fill="#f6a8d2" transform="translate(242,112)"/>
<path d="M0 0 C0.16 0.5 0.16 0.5 1 3 C-2.61 6.96 -6.46 9.74 -11.01 12.57 C-13 14 -13 14 -15 17 C-18.16 19.03 -21.31 19.5 -25 20 C-25.03 20.38 -25.03 20.38 -25.19 22.31 C-26 25 -26 25 -28.2 26.27 C-31.76 28.47 -34.04 31.17 -36.69 34.38 C-37.17 34.94 -37.66 35.5 -38.16 36.09 C-40.84 39.28 -42.54 42.05 -44 46 C-44.33 46.16 -44.33 46.16 -46 47 C-46.23 47.58 -46.23 47.58 -47.38 50.5 C-49 54 -49 54 -51.19 54.94 C-51.79 54.96 -52.38 54.98 -53 55 C-53 54.34 -53 53.68 -53 53 C-52.42 52.46 -51.84 51.93 -51.25 51.38 C-49 49 -49 49 -47.44 45.56 C-45.13 40.63 -41.63 36.86 -38.08 32.8 C-35.44 29.77 -33.07 26.78 -31 23.31 C-28.82 19.7 -27.44 18.39 -23.37 17.29 C-21.41 16.85 -19.46 16.41 -17.5 15.98 C-15 15 -15 15 -13.82 13.01 C-13.55 12.35 -13.28 11.68 -13 11 C-8.71 8 -8.71 8 -6 8 C-5.67 7.01 -5.34 6.02 -5 5 C-3.37 3.29 -1.71 1.62 0 0 Z " fill="#f6a8d2" transform="translate(135,102)"/>
<path d="M0 0 C0.33 0 0.66 0 1 0 C1.08 1.44 1.14 2.87 1.19 4.31 C1.2 4.71 1.2 4.71 1.29 6.74 C1 9 1 9 -0.32 10.73 C-3.99 13.5 -8.13 13.45 -12.54 13.42 C-15.34 12.94 -16.32 12.34 -18.19 10.25 C-20 7 -20 7 -19.81 4.62 C-19.54 4.09 -19.28 3.55 -19 3 C-18.01 3.33 -17.02 3.66 -16 4 C-13.31 3.56 -13.31 3.56 -11 3 C-10.67 4.32 -10.34 5.64 -10 7 C-7.36 6.67 -4.72 6.34 -2 6 C-1.34 4.02 -0.68 2.04 0 0 Z " fill="#5bc8ec" transform="translate(212,181)"/>
<path d="M0 0 C3.5 2.7 4.34 6.44 5.56 10.5 C6.73 14.3 7.77 17.65 10 21 C9.67 22.32 9.34 23.64 9 25 C7.51 24.34 7.51 24.34 0 21 C0.02 19.8 0.04 18.61 0.06 17.38 C0.07 13.81 -0.39 10.52 -1 7 C-1.12 3.69 -1.12 3.69 -1 1 C-0.67 0.67 -0.34 0.34 0 0 Z " fill="#f6a8d2" transform="translate(216,169)"/>
<path d="M0 0 C0.99 0.33 1.98 0.66 3 1 C2.67 1.66 2.34 2.32 2 3 C1.34 3 0.68 3 0 3 C-0.66 4.32 -1.32 5.64 -2 7 C-3.32 7 -4.64 7 -6 7 C-6.33 7.99 -6.66 8.98 -7 10 C-10.7 12.22 -12.63 13 -17 13 C-17.66 14.65 -18.32 16.3 -19 18 C-20.65 18 -22.3 18 -24 18 C-19.74 10.13 -12.6 7.04 -5 3 C-4.09 2.41 -3.19 1.81 -2.25 1.2 C-1.51 0.81 -0.76 0.41 0 0 Z " fill="#f6a8d2" transform="translate(283,84)"/>
<path d="M0 0 C0.33 2.64 0.66 5.28 1 8 C1.66 8 2.32 8 3 8 C4.46 10.65 5 11.89 5 15 C1.6 13.87 0.95 12.87 -1 10 C-2.32 10.33 -3.64 10.66 -5 11 C-6.65 9.02 -8.3 7.04 -10 5 C-8.33 5 -6.67 5 -5 5 C-5 3.68 -5 2.36 -5 1 C-2 0 -2 0 0 0 Z " fill="#f6a8d2" transform="translate(243,156)"/>
<path d="M0 0 C0.66 0 1.32 0 2 0 C3.32 6.22 3.32 6.22 2.06 9.31 C-1.04 11.85 -4.09 12.23 -8 13 C-7.39 9.35 -5.83 7.14 -3.56 4.25 C-2.95 3.45 -2.33 2.65 -1.69 1.83 C-1.13 1.22 -0.58 0.62 0 0 Z " fill="#fbfaf7" transform="translate(205,119)"/>
<path d="M0 0 C1.88 0.62 1.88 0.62 4 2 C5.25 5.12 5.25 5.12 6 8 C4.88 9.5 4.88 9.5 3 11 C-0.19 11.19 -0.19 11.19 -3 11 C-3.75 9.44 -3.75 9.44 -4 7 C-2.87 4.5 -1.48 2.33 0 0 Z " fill="#f6a8d2" transform="translate(160,69)"/>
<path d="M0 0 C4.72 0.28 6.49 2.29 9.51 5.58 C11 7 11 7 13.81 8.12 C14.53 8.41 15.26 8.7 16 9 C16.81 11.12 16.81 11.12 17 13 C15.68 12.67 14.36 12.34 13 12 C13 12.66 13 13.32 13 14 C12.01 13.67 11.02 13.34 10 13 C8.81 10.44 8.81 10.44 8 8 C7.34 8 6.68 8 6 8 C6 7.34 6 6.68 6 6 C5.34 6 4.68 6 4 6 C3.67 5.01 3.34 4.02 3 3 C1.44 1.31 1.44 1.31 0 0 Z " fill="#141414" transform="translate(159,149)"/>
<path d="M0 0 C0.66 0.19 1.32 0.37 2 0.56 C5.89 1.13 9.11 0.59 13 0 C13 0.66 13 1.32 13 2 C12.01 2 11.02 2 10 2 C9.67 3.65 9.34 5.3 9 7 C6.03 7 3.06 7 0 7 C-1.12 2.25 -1.12 2.25 0 0 Z " fill="#5bc8ec" transform="translate(75,191)"/>
</svg>
